{
.appVersion = "939";
copyright = "Copyright 2016 Jeremy Tribby. SIL OFL License v1.1.";
date = "2016-07-12 00:27:02 +0000";
designer = "Jeremy Tribby";
designerURL = "http://tribby.com/";
familyName = Barlow;
featurePrefixes = (
{
automatic = 1;
code = "languagesystem DFLT dflt;\012";
name = Languagesystems;
}
);
features = (
{
automatic = 1;
code = "sub hyphen hyphen by hyphen_hyphen.liga;\012";
name = liga;
}
);
fontMaster = (
{
alignmentZones = (
"{800, 16}",
"{700, 10}",
"{500, 9}",
"{0, -10}",
"{-200, -3}"
);
ascender = 800;
capHeight = 700;
customParameters = (
{
name = paramArea;
value = "488";
},
{
name = paramDepth;
value = "16";
},
{
name = paramOver;
value = "0";
}
);
descender = -200;
horizontalStems = (
22,
22
);
id = "262880E7-CFE1-4BDA-902E-E24798F3240A";
userData = {
GSCornerRadius = 8;
GSOffsetHorizontal = 11;
GSOffsetMakeStroke = 1;
GSOffsetVertical = 10;
noodleExtremesAndInflections = 1;
noodleRemoveOverlap = 1;
noodleThickness = "22.0";
};
verticalStems = (
21,
21
);
visible = 1;
weight = Light;
weightValue = 23;
xHeight = 500;
},
{
alignmentZones = (
"{800, 16}",
"{700, 13}",
"{520, 13}",
"{0, -13}",
"{-200, -10}"
);
ascender = 800;
capHeight = 700;
customParameters = (
{
name = paramArea;
value = "488";
},
{
name = paramDepth;
value = "16";
},
{
name = paramOver;
value = "0";
}
);
descender = -200;
horizontalStems = (
188,
188
);
id = "4E2227F3-52E4-4048-A8EE-327B486EF0A4";
userData = {
GSCornerRadius = 8;
GSOffsetHorizontal = 104;
GSOffsetMakeStroke = 1;
GSOffsetVertical = 95;
noodleExtremesAndInflections = 1;
noodleRemoveOverlap = 1;
noodleThickness = "22.0";
};
verticalStems = (
170,
161
);
visible = 1;
weight = Bold;
weightValue = 188;
xHeight = 520;
}
);
glyphs = (
{
glyphname = A;
lastChange = "2016-11-22 01:02:29 +0000";
layers = (
{
layerId = "262880E7-CFE1-4BDA-902E-E24798F3240A";
paths = (
{
closed = 1;
nodes = (
"47 0 LINE",
"227 658 LINE",
"406 0 LINE",
"429 0 LINE",
"238 700 LINE",
"215 700 LINE",
"24 0 LINE"
);
},
{
closed = 1;
nodes = (
"376 155 LINE",
"376 176 LINE",
"81 176 LINE",
"81 155 LINE"
);
}
);
width = 453;
},
{
layerId = "4E2227F3-52E4-4048-A8EE-327B486EF0A4";
paths = (
{
closed = 1;
nodes = (
"194 0 LINE",
"280 449 LINE",
"352 0 LINE",
"545 0 LINE",
"381 700 LINE",
"170 700 LINE",
"6 0 LINE"
);
},
{
closed = 1;
nodes = (
"413 100 LINE",
"413 244 LINE",
"134 244 LINE",
"134 100 LINE"
);
}
);
width = 551;
},
{
associatedMasterId = "262880E7-CFE1-4BDA-902E-E24798F3240A";
layerId = "1274BDA7-A57A-49E6-A7E6-98647C4EC339";
name = "{95,100}";
paths = (
{
closed = 1;
nodes = (
"112 0 LINE",
"251 567 LINE",
"383 0 LINE",
"480 0 LINE",
"301 700 LINE",
"196 700 LINE",
"17 0 LINE"
);
},
{
closed = 1;
nodes = (
"393 130 LINE",
"393 220 LINE",
"105 220 LINE",
"105 130 LINE"
);
}
);
width = 498;
}
);
leftKerningGroup = A;
rightKerningGroup = A;
unicode = 0041;
},
{
glyphname = B;
lastChange = "2016-11-22 01:02:29 +0000";
layers = (
{
layerId = "262880E7-CFE1-4BDA-902E-E24798F3240A";
paths = (
{
closed = 1;
nodes = (
"86 679 LINE",
"235 679 LINE SMOOTH",
"327 679 OFFCURVE",
"387 617 OFFCURVE",
"387 523 CURVE SMOOTH",
"387 432 OFFCURVE",
"327 372 OFFCURVE",
"235 372 CURVE SMOOTH",
"86 372 LINE"
);
},
{
closed = 1;
nodes = (
"235 351 LINE SMOOTH",
"340 351 OFFCURVE",
"409 420 OFFCURVE",
"409 523 CURVE SMOOTH",
"409 629 OFFCURVE",
"340 700 OFFCURVE",
"235 700 CURVE SMOOTH",
"64 700 LINE",
"64 351 LINE"
);
},
{
closed = 1;
nodes = (
"86 351 LINE",
"235 351 LINE SMOOTH",
"327 351 OFFCURVE",
"388 284 OFFCURVE",
"388 186 CURVE SMOOTH",
"388 88 OFFCURVE",
"327 22 OFFCURVE",
"235 22 CURVE SMOOTH",
"86 22 LINE"
);
},
{
closed = 1;
nodes = (
"235 0 LINE SMOOTH",
"340 0 OFFCURVE",
"410 74 OFFCURVE",
"410 186 CURVE SMOOTH",
"410 298 OFFCURVE",
"340 372 OFFCURVE",
"235 372 CURVE SMOOTH",
"64 372 LINE",
"64 0 LINE"
);
}
);
width = 450;
},
{
layerId = "4E2227F3-52E4-4048-A8EE-327B486EF0A4";
paths = (
{
closed = 1;
nodes = (
"204 530 LINE",
"234 530 LINE",
"261 530 OFFCURVE",
"279 512 OFFCURVE",
"279 479 CURVE SMOOTH",
"279 446 OFFCURVE",
"261 425 OFFCURVE",
"234 425 CURVE",
"204 425 LINE"
);
},
{
closed = 1;
nodes = (
"188 317 LINE SMOOTH",
"376 317 OFFCURVE",
"467 367 OFFCURVE",
"467 503 CURVE SMOOTH",
"467 640 OFFCURVE",
"371 700 OFFCURVE",
"226 700 CURVE",
"16 700 LINE",
"16 317 LINE"
);
},
{
closed = 1;
nodes = (
"204 286 LINE",
"241 286 LINE SMOOTH",
"272 286 OFFCURVE",
"292 260 OFFCURVE",
"292 225 CURVE SMOOTH",
"292 190 OFFCURVE",
"271 170 OFFCURVE",
"240 170 CURVE SMOOTH",
"204 170 LINE"
);
},
{
closed = 1;
nodes = (
"255 0 LINE SMOOTH",
"380 0 OFFCURVE",
"480 63 OFFCURVE",
"480 204 CURVE SMOOTH",
"480 355 OFFCURVE",
"318 411 OFFCURVE",
"188 411 CURVE",
"16 411 LINE",
"16 0 LINE"
);
}
);
width = 490;
},
{
associatedMasterId = "262880E7-CFE1-4BDA-902E-E24798F3240A";
layerId = "93E0B52A-A210-4120-ABA1-15C31411DBBB";
name = "{95,100}";
paths = (
{
closed = 1;
nodes = (
"146 612 LINE",
"241 612 LINE SMOOTH",
"308 612 OFFCURVE",
"351 570 OFFCURVE",
"351 504 CURVE SMOOTH",
"351 439 OFFCURVE",
"308 398 OFFCURVE",
"241 398 CURVE SMOOTH",
"146 398 LINE"
);
},
{
closed = 1;
nodes = (
"239 329 LINE SMOOTH",
"365 329 OFFCURVE",
"443 399 OFFCURVE",
"443 514 CURVE SMOOTH",
"443 629 OFFCURVE",
"363 700 OFFCURVE",
"234 700 CURVE SMOOTH",
"51 700 LINE",
"51 329 LINE"
);
},
{
closed = 1;
nodes = (
"146 317 LINE",
"241 317 LINE SMOOTH",
"311 317 OFFCURVE",
"354 273 OFFCURVE",
"354 205 CURVE SMOOTH",
"354 135 OFFCURVE",
"311 89 OFFCURVE",
"241 89 CURVE SMOOTH",
"146 89 LINE"
);
},
{
closed = 1;
nodes = (
"248 0 LINE SMOOTH",
"372 0 OFFCURVE",
"449 74 OFFCURVE",
"449 193 CURVE SMOOTH",
"449 316 OFFCURVE",
"369 393 OFFCURVE",
"241 393 CURVE SMOOTH",
"51 393 LINE",
"51 0 LINE"
);
}
);
width = 470;
}
);
leftKerningGroup = H;
rightKerningGroup = B;
unicode = 0042;
},
{
glyphname = C;
lastChange = "2016-11-22 01:02:29 +0000";
layers = (
{
layerId = "262880E7-CFE1-4BDA-902E-E24798F3240A";
paths = (
{
closed = 1;
nodes = (
"333 -9 OFFCURVE",
"400 56 OFFCURVE",
"400 154 CURVE SMOOTH",
"400 179 LINE",
"377 179 LINE",
"377 152 LINE SMOOTH",
"377 68 OFFCURVE",
"320 12 OFFCURVE",
"232 12 CURVE SMOOTH",
"144 12 OFFCURVE",
"86 68 OFFCURVE",
"86 152 CURVE SMOOTH",
"86 548 LINE SMOOTH",
"86 632 OFFCURVE",
"144 688 OFFCURVE",
"232 688 CURVE SMOOTH",
"320 688 OFFCURVE",
"377 632 OFFCURVE",
"377 548 CURVE SMOOTH",
"377 520 LINE",
"400 520 LINE",
"400 546 LINE SMOOTH",
"400 644 OFFCURVE",
"333 709 OFFCURVE",
"232 709 CURVE SMOOTH",
"131 709 OFFCURVE",
"64 644 OFFCURVE",
"64 546 CURVE SMOOTH",
"64 154 LINE SMOOTH",
"64 56 OFFCURVE",
"131 -9 OFFCURVE",
"232 -9 CURVE SMOOTH"
);
}
);
width = 440;
},
{
layerId = "4E2227F3-52E4-4048-A8EE-327B486EF0A4";
paths = (
{
closed = 1;
nodes = (
"387 -11 OFFCURVE",
"480 75 OFFCURVE",
"480 205 CURVE SMOOTH",
"480 231 LINE",
"292 231 LINE",
"292 194 LINE SMOOTH",
"292 168 OFFCURVE",
"274 150 OFFCURVE",
"248 150 CURVE SMOOTH",
"222 150 OFFCURVE",
"204 168 OFFCURVE",
"204 194 CURVE SMOOTH",
"204 508 LINE SMOOTH",
"204 534 OFFCURVE",
"222 552 OFFCURVE",
"248 552 CURVE SMOOTH",
"274 552 OFFCURVE",
"292 534 OFFCURVE",
"292 508 CURVE SMOOTH",
"292 470 LINE",
"480 470 LINE",
"480 497 LINE SMOOTH",
"480 627 OFFCURVE",
"387 713 OFFCURVE",
"248 713 CURVE SMOOTH",
"109 713 OFFCURVE",
"16 627 OFFCURVE",
"16 497 CURVE SMOOTH",
"16 205 LINE SMOOTH",
"16 75 OFFCURVE",
"109 -11 OFFCURVE",
"248 -11 CURVE SMOOTH"
);
}
);
width = 490;
},
{
associatedMasterId = "262880E7-CFE1-4BDA-902E-E24798F3240A";
layerId = "720A3B58-5B9D-4DCC-84D4-46C8C80683FD";
name = "{95,100}";
paths = (
{
closed = 1;
nodes = (
"349 -10 OFFCURVE",
"427 64 OFFCURVE",
"427 176 CURVE SMOOTH",
"427 202 LINE",
"332 202 LINE",
"332 178 LINE SMOOTH",
"332 120 OFFCURVE",
"292 80 OFFCURVE",
"233 80 CURVE SMOOTH",
"173 80 OFFCURVE",
"133 120 OFFCURVE",
"133 178 CURVE SMOOTH",
"133 523 LINE SMOOTH",
"133 581 OFFCURVE",
"173 621 OFFCURVE",
"233 621 CURVE SMOOTH",
"292 621 OFFCURVE",
"332 581 OFFCURVE",
"332 523 CURVE SMOOTH",
"332 498 LINE",
"427 498 LINE",
"427 525 LINE SMOOTH",
"427 637 OFFCURVE",
"349 711 OFFCURVE",
"233 711 CURVE SMOOTH",
"116 711 OFFCURVE",
"38 637 OFFCURVE",
"38 525 CURVE SMOOTH",
"38 176 LINE SMOOTH",
"38 64 OFFCURVE",
"116 -10 OFFCURVE",
"233 -10 CURVE SMOOTH"
);
}
);
width = 461;
}
);
leftKerningGroup = O;
rightKerningGroup = C;
unicode = 0043;
},
{
glyphname = D;
lastChange = "2016-11-22 01:02:29 +0000";
layers = (
{
layerId = "262880E7-CFE1-4BDA-902E-E24798F3240A";
paths = (
{
closed = 1;
nodes = (
"235 0 LINE SMOOTH",
"337 0 OFFCURVE",
"400 68 OFFCURVE",
"400 180 CURVE SMOOTH",
"400 520 LINE SMOOTH",
"400 632 OFFCURVE",
"337 700 OFFCURVE",
"235 700 CURVE SMOOTH",
"72 700 LINE",
"72 0 LINE"
);
},
{
closed = 1;
nodes = (
"94 679 LINE",
"237 679 LINE SMOOTH",
"324 679 OFFCURVE",
"378 619 OFFCURVE",
"378 520 CURVE SMOOTH",
"378 179 LINE SMOOTH",
"378 81 OFFCURVE",
"324 21 OFFCURVE",
"237 21 CURVE SMOOTH",
"94 21 LINE"
);
}
);
width = 456;
},
{
layerId = "4E2227F3-52E4-4048-A8EE-327B486EF0A4";
paths = (
{
closed = 1;
nodes = (
"243 0 LINE SMOOTH",
"384 0 OFFCURVE",
"478 80 OFFCURVE",
"478 200 CURVE SMOOTH",
"478 500 LINE SMOOTH",
"478 620 OFFCURVE",
"384 700 OFFCURVE",
"243 700 CURVE SMOOTH",
"18 700 LINE",
"18 0 LINE"
);
},
{
closed = 1;
nodes = (
"206 530 LINE",
"238 530 LINE SMOOTH",
"269 530 OFFCURVE",
"290 510 OFFCURVE",
"290 479 CURVE",
"290 222 LINE",
"288 192 OFFCURVE",
"267 172 OFFCURVE",
"238 171 CURVE SMOOTH",
"206 170 LINE"
);
}
);
width = 492;
},
{
associatedMasterId = "262880E7-CFE1-4BDA-902E-E24798F3240A";
layerId = "2C84FD61-1044-497C-B585-08307607F25A";
name = "{95,100}";
paths = (
{
closed = 1;
nodes = (
"238 0 LINE SMOOTH",
"358 0 OFFCURVE",
"434 73 OFFCURVE",
"434 189 CURVE SMOOTH",
"434 511 LINE SMOOTH",
"434 627 OFFCURVE",
"358 700 OFFCURVE",
"238 700 CURVE SMOOTH",
"48 700 LINE",
"48 0 LINE"
);
},
{
closed = 1;
nodes = (
"143 610 LINE",
"237 610 LINE SMOOTH",
"300 610 OFFCURVE",
"340 567 OFFCURVE",
"340 498 CURVE SMOOTH",
"340 202 LINE SMOOTH",
"340 133 OFFCURVE",
"299 90 OFFCURVE",
"237 90 CURVE SMOOTH",
"143 90 LINE"
);
}
);
width = 472;
}
);
leftKerningGroup = H;
rightKerningGroup = B;
unicode = 0044;
},
{
glyphname = E;
lastChange = "2016-11-22 01:02:29 +0000";
layers = (
{
layerId = "262880E7-CFE1-4BDA-902E-E24798F3240A";
paths = (
{
closed = 1;
nodes = (
"398 0 LINE",
"398 21 LINE",
"94 21 LINE",
"94 679 LINE",
"398 679 LINE",
"398 700 LINE",
"72 700 LINE",
"72 0 LINE"
);
},
{
closed = 1;
nodes = (
"305 340 LINE",
"305 361 LINE",
"83 361 LINE",
"83 340 LINE"
);
}
);
width = 430;
},
{
layerId = "4E2227F3-52E4-4048-A8EE-327B486EF0A4";
paths = (
{
closed = 1;
nodes = (
"453 0 LINE",
"453 170 LINE",
"206 170 LINE",
"206 530 LINE",
"453 530 LINE",
"453 700 LINE",
"18 700 LINE",
"18 0 LINE"
);
},
{
closed = 1;
nodes = (
"354 265 LINE",
"354 435 LINE",
"94 435 LINE",
"94 265 LINE"
);
}
);
width = 461;
},
{
associatedMasterId = "262880E7-CFE1-4BDA-902E-E24798F3240A";
layerId = "7AF0CB16-15C6-4853-92DB-28FAD9498105";
name = "{95,100}";
paths = (
{
closed = 1;
nodes = (
"420 0 LINE",
"420 92 LINE",
"141 92 LINE",
"141 608 LINE",
"420 608 LINE",
"420 700 LINE",
"47 700 LINE",
"47 0 LINE"
);
},
{
closed = 1;
nodes = (
"325 307 LINE",
"325 398 LINE",
"86 398 LINE",
"86 307 LINE"
);
}
);
width = 446;
}
);
leftKerningGroup = H;
unicode = 0045;
},
{
glyphname = F;
lastChange = "2016-11-22 01:02:29 +0000";
layers = (
{
layerId = "262880E7-CFE1-4BDA-902E-E24798F3240A";
paths = (
{
closed = 1;
nodes = (
"94 0 LINE",
"94 679 LINE",
"397 679 LINE",
"397 700 LINE",
"72 700 LINE",
"72 0 LINE"
);
},
{
closed = 1;
nodes = (
"304 340 LINE",
"304 361 LINE",
"83 361 LINE",
"83 340 LINE"
);
}
);
width = 421;
},
{
layerId = "4E2227F3-52E4-4048-A8EE-327B486EF0A4";
paths = (
{
closed = 1;
nodes = (
"206 0 LINE",
"206 530 LINE",
"453 530 LINE",
"453 700 LINE",
"18 700 LINE",
"18 0 LINE"
);
},
{
closed = 1;
nodes = (
"354 265 LINE",
"354 435 LINE",
"94 435 LINE",
"94 265 LINE"
);
}
);
width = 459;
},
{
associatedMasterId = "262880E7-CFE1-4BDA-902E-E24798F3240A";
layerId = "9C1922F2-4246-4C06-8262-FD2BFEB23C93";
name = "{95,100}";
paths = (
{
closed = 1;
nodes = (
"141 0 LINE",
"141 608 LINE",
"420 608 LINE",
"420 700 LINE",
"47 700 LINE",
"47 0 LINE"
);
},
{
closed = 1;
nodes = (
"324 307 LINE",
"324 399 LINE",
"86 399 LINE",
"86 307 LINE"
);
}
);
width = 441;
}
);
leftKerningGroup = H;
unicode = 0046;
},
{
glyphname = G;
lastChange = "2016-11-22 01:02:29 +0000";
layers = (
{
layerId = "262880E7-CFE1-4BDA-902E-E24798F3240A";
paths = (
{
closed = 1;
nodes = (
"333 -9 OFFCURVE",
"399 56 OFFCURVE",
"399 154 CURVE SMOOTH",
"399 361 LINE",
"240 361 LINE",
"240 340 LINE",
"377 340 LINE",
"377 152 LINE SMOOTH",
"377 68 OFFCURVE",
"320 12 OFFCURVE",
"232 12 CURVE SMOOTH",
"144 12 OFFCURVE",
"86 68 OFFCURVE",
"86 152 CURVE SMOOTH",
"86 548 LINE SMOOTH",
"86 632 OFFCURVE",
"144 688 OFFCURVE",
"232 688 CURVE SMOOTH",
"320 688 OFFCURVE",
"377 632 OFFCURVE",
"377 548 CURVE SMOOTH",
"377 500 LINE",
"399 500 LINE",
"399 546 LINE SMOOTH",
"399 644 OFFCURVE",
"333 709 OFFCURVE",
"232 709 CURVE SMOOTH",
"131 709 OFFCURVE",
"64 644 OFFCURVE",
"64 546 CURVE SMOOTH",
"64 154 LINE SMOOTH",
"64 56 OFFCURVE",
"131 -9 OFFCURVE",
"232 -9 CURVE SMOOTH"
);
}
);
width = 439;
},
{
layerId = "4E2227F3-52E4-4048-A8EE-327B486EF0A4";
paths = (
{
closed = 1;
nodes = (
"384 -11 OFFCURVE",
"476 72 OFFCURVE",
"476 196 CURVE SMOOTH",
"476 380 LINE",
"248 380 LINE",
"248 271 LINE",
"288 271 LINE",
"288 192 LINE SMOOTH",
"288 167 OFFCURVE",
"271 150 OFFCURVE",
"246 150 CURVE SMOOTH",
"221 150 OFFCURVE",
"204 167 OFFCURVE",
"204 192 CURVE SMOOTH",
"204 509 LINE SMOOTH",
"204 534 OFFCURVE",
"221 551 OFFCURVE",
"246 551 CURVE SMOOTH",
"271 551 OFFCURVE",
"288 534 OFFCURVE",
"288 509 CURVE SMOOTH",
"288 430 LINE",
"476 430 LINE",
"476 503 LINE SMOOTH",
"476 628 OFFCURVE",
"384 712 OFFCURVE",
"246 712 CURVE SMOOTH",
"108 712 OFFCURVE",
"16 629 OFFCURVE",
"16 505 CURVE SMOOTH",
"16 196 LINE SMOOTH",
"16 72 OFFCURVE",
"108 -11 OFFCURVE",
"246 -11 CURVE SMOOTH"
);
}
);
width = 486;
},
{
associatedMasterId = "262880E7-CFE1-4BDA-902E-E24798F3240A";
layerId = "81F7C966-F8F1-415C-A234-62D5C18AA009";
name = "{95,100}";
paths = (
{
closed = 1;
nodes = (
"348 -10 OFFCURVE",
"424 63 OFFCURVE",
"424 172 CURVE SMOOTH",
"424 399 LINE",
"237 399 LINE",
"237 309 LINE",
"330 309 LINE",
"330 177 LINE SMOOTH",
"330 119 OFFCURVE",
"291 80 OFFCURVE",
"232 80 CURVE SMOOTH",
"172 80 OFFCURVE",
"133 119 OFFCURVE",
"133 177 CURVE SMOOTH",
"133 523 LINE SMOOTH",
"133 581 OFFCURVE",
"172 620 OFFCURVE",
"232 620 CURVE SMOOTH",
"291 620 OFFCURVE",
"330 581 OFFCURVE",
"330 523 CURVE SMOOTH",
"330 477 LINE",
"424 477 LINE",
"424 527 LINE SMOOTH",
"424 637 OFFCURVE",
"348 710 OFFCURVE",
"232 710 CURVE SMOOTH",
"116 710 OFFCURVE",
"38 637 OFFCURVE",
"38 528 CURVE SMOOTH",
"38 172 LINE SMOOTH",
"38 63 OFFCURVE",
"116 -10 OFFCURVE",
"232 -10 CURVE SMOOTH"
);
}
);
width = 463;
}
);
leftKerningGroup = O;
rightKerningGroup = G;
unicode = 0047;
},
{
glyphname = H;
lastChange = "2016-11-22 01:02:29 +0000";
layers = (
{
layerId = "262880E7-CFE1-4BDA-902E-E24798F3240A";
paths = (
{
closed = 1;
nodes = (
"400 0 LINE",
"400 700 LINE",
"377 700 LINE",
"377 0 LINE"
);
},
{
closed = 1;
nodes = (
"94 0 LINE",
"94 700 LINE",
"72 700 LINE",
"72 0 LINE"
);
},
{
closed = 1;
nodes = (
"383 340 LINE",
"383 361 LINE",
"89 361 LINE",
"89 340 LINE"
);
}
);
width = 472;
},
{
layerId = "4E2227F3-52E4-4048-A8EE-327B486EF0A4";
paths = (
{
closed = 1;
nodes = (
"468 0 LINE",
"468 700 LINE",
"280 700 LINE",
"280 0 LINE"
);
},
{
closed = 1;
nodes = (
"206 0 LINE",
"206 700 LINE",
"18 700 LINE",
"18 0 LINE"
);
},
{
closed = 1;
nodes = (
"374 265 LINE",
"374 435 LINE",
"114 435 LINE",
"114 265 LINE"
);
}
);
width = 486;
},
{
associatedMasterId = "262880E7-CFE1-4BDA-902E-E24798F3240A";
layerId = "31823E21-3C14-46CD-9A59-ED0DFD05051D";
name = "{95,100}";
paths = (
{
closed = 1;
nodes = (
"428 0 LINE",
"428 700 LINE",
"333 700 LINE",
"333 0 LINE"
);
},
{
closed = 1;
nodes = (
"141 0 LINE",
"141 700 LINE",
"47 700 LINE",
"47 0 LINE"
);
},
{
closed = 1;
nodes = (
"377 307 LINE",
"377 397 LINE",
"98 397 LINE",
"98 307 LINE"
);
}
);
width = 475;
}
);
unicode = 0048;
},
{
glyphname = I;
lastChange = "2016-11-22 01:02:29 +0000";
layers = (
{
layerId = "262880E7-CFE1-4BDA-902E-E24798F3240A";
paths = (
{
closed = 1;
nodes = (
"94 0 LINE",
"94 700 LINE",
"72 700 LINE",
"72 0 LINE"
);
}
);
width = 166;
},
{
layerId = "4E2227F3-52E4-4048-A8EE-327B486EF0A4";
paths = (
{
closed = 1;
nodes = (
"206 0 LINE",
"206 700 LINE",
"18 700 LINE",
"18 0 LINE"
);
}
);
width = 224;
}
);
unicode = 0049;
},
{
glyphname = J;
lastChange = "2016-11-22 01:02:29 +0000";
layers = (
{
layerId = "262880E7-CFE1-4BDA-902E-E24798F3240A";
paths = (
{
closed = 1;
nodes = (
"285 -9 OFFCURVE",
"350 56 OFFCURVE",
"350 154 CURVE SMOOTH",
"350 700 LINE",
"328 700 LINE",
"328 152 LINE SMOOTH",
"328 68 OFFCURVE",
"271 12 OFFCURVE",
"187 12 CURVE SMOOTH",
"103 12 OFFCURVE",
"46 68 OFFCURVE",
"46 152 CURVE SMOOTH",
"46 234 LINE",
"24 234 LINE",
"24 154 LINE SMOOTH",
"24 56 OFFCURVE",
"89 -9 OFFCURVE",
"187 -9 CURVE SMOOTH"
);
}
);
width = 422;
},
{
layerId = "4E2227F3-52E4-4048-A8EE-327B486EF0A4";
paths = (
{
closed = 1;
nodes = (
"374 -8 OFFCURVE",
"466 72 OFFCURVE",
"466 192 CURVE SMOOTH",
"466 700 LINE",
"278 700 LINE",
"278 204 LINE SMOOTH",
"278 179 OFFCURVE",
"261 162 OFFCURVE",
"236 162 CURVE SMOOTH",
"211 162 OFFCURVE",
"194 179 OFFCURVE",
"194 204 CURVE SMOOTH",
"194 265 LINE",
"6 265 LINE",
"6 192 LINE SMOOTH",
"6 72 OFFCURVE",
"98 -8 OFFCURVE",
"236 -8 CURVE SMOOTH"
);
}
);
width = 484;
},
{
associatedMasterId = "262880E7-CFE1-4BDA-902E-E24798F3240A";
layerId = "65148597-B97A-49CF-A63D-3D6183A855C1";
name = "{95,100}";
paths = (
{
closed = 1;
nodes = (
"342 -9 OFFCURVE",
"419 63 OFFCURVE",
"419 171 CURVE SMOOTH",
"419 700 LINE",
"324 700 LINE",
"324 179 LINE SMOOTH",
"324 120 OFFCURVE",
"285 81 OFFCURVE",
"226 81 CURVE SMOOTH",
"168 81 OFFCURVE",
"128 120 OFFCURVE",
"128 179 CURVE SMOOTH",
"128 248 LINE",
"34 248 LINE",
"34 171 LINE SMOOTH",
"34 63 OFFCURVE",
"111 -9 OFFCURVE",
"226 -9 CURVE SMOOTH"
);
}
);
width = 465;
}
);
leftKerningGroup = J;
rightKerningGroup = U;
unicode = 004A;
},
{
glyphname = K;
lastChange = "2016-11-22 01:02:29 +0000";
layers = (
{
layerId = "262880E7-CFE1-4BDA-902E-E24798F3240A";
paths = (
{
closed = 1;
nodes = (
"94 0 LINE",
"94 274 LINE",
"195 406 LINE",
"410 0 LINE",
"438 0 LINE",
"211 427 LINE",
"418 700 LINE",
"390 700 LINE",
"94 308 LINE",
"94 700 LINE",
"72 700 LINE",
"72 0 LINE"
);
}
);
width = 438;
},
{
layerId = "4E2227F3-52E4-4048-A8EE-327B486EF0A4";
paths = (
{
closed = 1;
nodes = (
"206 0 LINE",
"206 183 LINE",
"239 246 LINE",
"305 -4 LINE",
"503 0 LINE",
"362 392 LINE",
"505 700 LINE",
"307 700 LINE",
"206 447 LINE",
"206 700 LINE",
"18 700 LINE",
"18 0 LINE"
);
}
);
width = 505;
}
);
rightKerningGroup = K;
unicode = 004B;
},
{
glyphname = L;
lastChange = "2016-11-22 01:02:29 +0000";
layers = (
{
layerId = "262880E7-CFE1-4BDA-902E-E24798F3240A";
paths = (
{
closed = 1;
nodes = (
"389 0 LINE",
"389 21 LINE",
"94 21 LINE",
"94 700 LINE",
"72 700 LINE",
"72 0 LINE"
);
}
);
width = 405;
},
{
layerId = "4E2227F3-52E4-4048-A8EE-327B486EF0A4";
paths = (
{
closed = 1;
nodes = (
"453 0 LINE",
"453 170 LINE",
"206 170 LINE",
"206 700 LINE",
"18 700 LINE",
"18 0 LINE"
);
}
);
width = 457;
},
{
associatedMasterId = "262880E7-CFE1-4BDA-902E-E24798F3240A";
layerId = "B734E69C-2AF6-42EC-9D16-BBE1A7449BD3";
name = "{95,100}";
paths = (
{
closed = 1;
nodes = (
"415 0 LINE",
"415 90 LINE",
"141 90 LINE",
"141 700 LINE",
"47 700 LINE",
"47 0 LINE"
);
}
);
width = 424;
}
);
rightKerningGroup = L;
unicode = 004C;
},
{
glyphname = M;
lastChange = "2016-11-22 01:02:29 +0000";
layers = (
{
layerId = "262880E7-CFE1-4BDA-902E-E24798F3240A";
paths = (
{
closed = 1;
nodes = (
"86 0 LINE",
"86 651 LINE",
"245 327 LINE",
"404 651 LINE",
"404 0 LINE",
"426 0 LINE",
"426 700 LINE",
"404 700 LINE",
"245 372 LINE",
"86 700 LINE",
"64 700 LINE",
"64 0 LINE"
);
}
);
width = 490;
},
{
layerId = "4E2227F3-52E4-4048-A8EE-327B486EF0A4";
paths = (
{
closed = 1;
nodes = (
"204 0 LINE",
"204 424 LINE",
"271 296 LINE",
"336 421 LINE",
"336 0 LINE",
"524 0 LINE",
"524 700 LINE",
"341 700 LINE",
"271 562 LINE",
"199 700 LINE",
"16 700 LINE",
"16 0 LINE"
);
}
);
width = 540;
},
{
associatedMasterId = "262880E7-CFE1-4BDA-902E-E24798F3240A";
layerId = "187E669A-7479-4BB4-826A-9BA31BA174C6";
name = "{95,100}";
paths = (
{
closed = 1;
nodes = (
"141 0 LINE",
"141 507 LINE",
"260 276 LINE",
"378 506 LINE",
"378 0 LINE",
"473 0 LINE",
"473 700 LINE",
"380 700 LINE",
"260 455 LINE",
"139 700 LINE",
"47 700 LINE",
"47 0 LINE"
);
}
);
width = 519;
}
);
unicode = 004D;
},
{
glyphname = N;
lastChange = "2016-11-22 01:02:29 +0000";
layers = (
{
layerId = "262880E7-CFE1-4BDA-902E-E24798F3240A";
paths = (
{
closed = 1;
nodes = (
"86 0 LINE",
"86 647 LINE",
"386 0 LINE",
"408 0 LINE",
"408 700 LINE",
"386 700 LINE",
"386 53 LINE",
"86 700 LINE",
"64 700 LINE",
"64 0 LINE"
);
}
);
width = 472;
},
{
layerId = "4E2227F3-52E4-4048-A8EE-327B486EF0A4";
paths = (
{
closed = 1;
nodes = (
"202 0 LINE",
"200 346 LINE",
"298 0 LINE",
"502 0 LINE",
"502 700 LINE",
"316 700 LINE",
"318 356 LINE",
"220 700 LINE",
"16 700 LINE",
"16 0 LINE"
);
}
);
width = 518;
},
{
associatedMasterId = "262880E7-CFE1-4BDA-902E-E24798F3240A";
layerId = "B68339A5-228C-407B-A604-C2C0356B3DF7";
name = "{95,100}";
paths = (
{
closed = 1;
nodes = (
"143 0 LINE",
"143 463 LINE",
"350 0 LINE",
"443 0 LINE",
"443 700 LINE",
"348 700 LINE",
"348 229 LINE",
"141 700 LINE",
"47 700 LINE",
"47 0 LINE"
);
}
);
width = 490;
}
);
leftKerningGroup = H;
rightKerningGroup = H;
unicode = 004E;
},
{
glyphname = O;
lastChange = "2016-11-22 01:02:29 +0000";
layers = (
{
layerId = "262880E7-CFE1-4BDA-902E-E24798F3240A";
paths = (
{
closed = 1;
nodes = (
"324 -9 OFFCURVE",
"393 56 OFFCURVE",
"393 154 CURVE SMOOTH",
"393 546 LINE SMOOTH",
"393 644 OFFCURVE",
"324 709 OFFCURVE",
"220 709 CURVE SMOOTH",
"117 709 OFFCURVE",
"48 644 OFFCURVE",
"48 546 CURVE SMOOTH",
"48 154 LINE SMOOTH",
"48 56 OFFCURVE",
"117 -9 OFFCURVE",
"220 -9 CURVE SMOOTH"
);
},
{
closed = 1;
nodes = (
"130 12 OFFCURVE",
"70 68 OFFCURVE",
"70 152 CURVE SMOOTH",
"70 548 LINE SMOOTH",
"70 632 OFFCURVE",
"130 688 OFFCURVE",
"220 688 CURVE SMOOTH",
"311 688 OFFCURVE",
"371 632 OFFCURVE",
"371 548 CURVE SMOOTH",
"371 152 LINE SMOOTH",
"371 68 OFFCURVE",
"311 12 OFFCURVE",
"220 12 CURVE SMOOTH"
);
}
);
width = 441;
},
{
layerId = "4E2227F3-52E4-4048-A8EE-327B486EF0A4";
paths = (
{
closed = 1;
nodes = (
"394 -12 OFFCURVE",
"490 78 OFFCURVE",
"490 214 CURVE SMOOTH",
"490 486 LINE SMOOTH",
"490 622 OFFCURVE",
"394 712 OFFCURVE",
"251 712 CURVE SMOOTH",
"108 712 OFFCURVE",
"12 622 OFFCURVE",
"12 486 CURVE SMOOTH",
"12 214 LINE SMOOTH",
"12 78 OFFCURVE",
"108 -12 OFFCURVE",
"251 -12 CURVE SMOOTH"
);
},
{
closed = 1;
nodes = (
"220 149 OFFCURVE",
"200 174 OFFCURVE",
"200 203 CURVE SMOOTH",
"200 497 LINE SMOOTH",
"200 526 OFFCURVE",
"220 551 OFFCURVE",
"251 551 CURVE SMOOTH",
"282 551 OFFCURVE",
"302 526 OFFCURVE",
"302 497 CURVE SMOOTH",
"302 203 LINE SMOOTH",
"302 174 OFFCURVE",
"282 149 OFFCURVE",
"251 149 CURVE SMOOTH"
);
}
);
width = 502;
},
{
associatedMasterId = "262880E7-CFE1-4BDA-902E-E24798F3240A";
layerId = "C54DB89B-6500-4B9B-BC80-E29993877229";
name = "{95,100}";
paths = (
{
closed = 1;
nodes = (
"365 -10 OFFCURVE",
"446 66 OFFCURVE",
"446 180 CURVE SMOOTH",
"446 520 LINE SMOOTH",
"446 634 OFFCURVE",
"365 710 OFFCURVE",
"244 710 CURVE SMOOTH",
"123 710 OFFCURVE",
"43 634 OFFCURVE",
"43 520 CURVE SMOOTH",
"43 180 LINE SMOOTH",
"43 66 OFFCURVE",
"123 -10 OFFCURVE",
"244 -10 CURVE SMOOTH"
);
},
{
closed = 1;
nodes = (
"180 80 OFFCURVE",
"137 122 OFFCURVE",
"137 182 CURVE SMOOTH",
"137 518 LINE SMOOTH",
"137 578 OFFCURVE",
"180 620 OFFCURVE",
"244 620 CURVE SMOOTH",
"309 620 OFFCURVE",
"351 578 OFFCURVE",
"351 518 CURVE SMOOTH",
"351 182 LINE SMOOTH",
"351 122 OFFCURVE",
"309 80 OFFCURVE",
"244 80 CURVE SMOOTH"
);
}
);
width = 488;
}
);
leftKerningGroup = C;
rightKerningGroup = O;
unicode = 004F;
},
{
glyphname = P;
lastChange = "2016-11-22 01:02:29 +0000";
layers = (
{
layerId = "262880E7-CFE1-4BDA-902E-E24798F3240A";
paths = (
{
closed = 1;
nodes = (
"87 0 LINE",
"87 680 LINE",
"254 680 LINE SMOOTH",
"334 680 OFFCURVE",
"387 616 OFFCURVE",
"387 520 CURVE SMOOTH",
"387 424 OFFCURVE",
"334 360 OFFCURVE",
"254 360 CURVE SMOOTH",
"82 360 LINE",
"82 340 LINE",
"252 340 LINE SMOOTH",
"346 340 OFFCURVE",
"408 411 OFFCURVE",
"408 520 CURVE SMOOTH",
"408 629 OFFCURVE",
"346 702 OFFCURVE",
"252 702 CURVE SMOOTH",
"64 702 LINE",
"64 0 LINE"
);
}
);
width = 456;
},
{
layerId = "4E2227F3-52E4-4048-A8EE-327B486EF0A4";
paths = (
{
closed = 1;
nodes = (
"204 0 LINE",
"204 530 LINE",
"239 530 LINE SMOOTH",
"271 530 OFFCURVE",
"293 508 OFFCURVE",
"293 476 CURVE SMOOTH",
"293 438 OFFCURVE",
"271 412 OFFCURVE",
"239 412 CURVE SMOOTH",
"188 412 LINE",
"188 247 LINE",
"271 247 LINE SMOOTH",
"397 247 OFFCURVE",
"481 339 OFFCURVE",
"481 476 CURVE SMOOTH",
"481 610 OFFCURVE",
"393 700 OFFCURVE",
"261 700 CURVE SMOOTH",
"16 700 LINE",
"16 0 LINE"
);
}
);
width = 493;
}
);
leftKerningGroup = H;
unicode = 0050;
},
{
glyphname = Q;
lastChange = "2016-11-22 01:02:30 +0000";
layers = (
{
layerId = "262880E7-CFE1-4BDA-902E-E24798F3240A";
paths = (
{
closed = 1;
nodes = (
"226 -97 LINE",
"223 93 LINE",
"203 93 LINE",
"200 -97 LINE"
);
},
{
closed = 1;
nodes = (
"127 12 OFFCURVE",
"70 68 OFFCURVE",
"70 152 CURVE SMOOTH",
"70 548 LINE SMOOTH",
"70 632 OFFCURVE",
"127 688 OFFCURVE",
"213 688 CURVE SMOOTH",
"299 688 OFFCURVE",
"356 632 OFFCURVE",
"356 548 CURVE SMOOTH",
"356 152 LINE SMOOTH",
"356 68 OFFCURVE",
"299 12 OFFCURVE",
"213 12 CURVE SMOOTH"
);
},
{
closed = 1;
nodes = (
"312 -9 OFFCURVE",
"378 56 OFFCURVE",
"378 154 CURVE SMOOTH",
"378 546 LINE SMOOTH",
"378 644 OFFCURVE",
"312 709 OFFCURVE",
"213 709 CURVE SMOOTH",
"114 709 OFFCURVE",
"48 644 OFFCURVE",
"48 546 CURVE SMOOTH",
"48 154 LINE SMOOTH",
"48 56 OFFCURVE",
"114 -9 OFFCURVE",
"213 -9 CURVE SMOOTH"
);
}
);
width = 441;
},
{
layerId = "4E2227F3-52E4-4048-A8EE-327B486EF0A4";
paths = (
{
closed = 1;
nodes = (
"342 -103 LINE",
"322 3 LINE",
"174 3 LINE",
"154 -103 LINE"
);
},
{
closed = 1;
nodes = (
"219 162 OFFCURVE",
"200 182 OFFCURVE",
"200 213 CURVE SMOOTH",
"200 487 LINE SMOOTH",
"200 518 OFFCURVE",
"219 538 OFFCURVE",
"248 538 CURVE SMOOTH",
"277 538 OFFCURVE",
"296 518 OFFCURVE",
"296 487 CURVE SMOOTH",
"296 213 LINE SMOOTH",
"296 182 OFFCURVE",
"277 162 OFFCURVE",
"248 162 CURVE SMOOTH"
);
},
{
closed = 1;
nodes = (
"390 -8 OFFCURVE",
"484 81 OFFCURVE",
"484 215 CURVE SMOOTH",
"484 485 LINE SMOOTH",
"484 619 OFFCURVE",
"390 708 OFFCURVE",
"248 708 CURVE SMOOTH",
"106 708 OFFCURVE",
"12 619 OFFCURVE",
"12 485 CURVE SMOOTH",
"12 215 LINE SMOOTH",
"12 81 OFFCURVE",
"106 -8 OFFCURVE",
"248 -8 CURVE SMOOTH"
);
}
);
width = 502;
},
{
associatedMasterId = "262880E7-CFE1-4BDA-902E-E24798F3240A";
layerId = "506A4DB3-9CD6-44CD-BCA8-2AE710F44E44";
name = "{95,100}";
paths = (
{
closed = 1;
nodes = (
"273 -92 LINE",
"263 121 LINE",
"187 121 LINE",
"176 -92 LINE"
);
},
{
closed = 1;
nodes = (
"167 81 OFFCURVE",
"127 122 OFFCURVE",
"127 183 CURVE SMOOTH",
"127 517 LINE SMOOTH",
"127 578 OFFCURVE",
"167 619 OFFCURVE",
"228 619 CURVE SMOOTH",
"289 619 OFFCURVE",
"330 578 OFFCURVE",
"330 517 CURVE SMOOTH",
"330 183 LINE SMOOTH",
"330 122 OFFCURVE",
"289 81 OFFCURVE",
"228 81 CURVE SMOOTH"
);
},
{
closed = 1;
nodes = (
"346 -9 OFFCURVE",
"424 67 OFFCURVE",
"424 181 CURVE SMOOTH",
"424 519 LINE SMOOTH",
"424 633 OFFCURVE",
"346 709 OFFCURVE",
"228 709 CURVE SMOOTH",
"111 709 OFFCURVE",
"32 633 OFFCURVE",
"32 519 CURVE SMOOTH",
"32 181 LINE SMOOTH",
"32 67 OFFCURVE",
"111 -9 OFFCURVE",
"228 -9 CURVE SMOOTH"
);
}
);
width = 465;
}
);
leftKerningGroup = C;
unicode = 0051;
},
{
glyphname = R;
lastChange = "2016-11-22 01:02:29 +0000";
layers = (
{
layerId = "262880E7-CFE1-4BDA-902E-E24798F3240A";
paths = (
{
closed = 1;
nodes = (
"87 0 LINE",
"87 680 LINE",
"258 680 LINE SMOOTH",
"337 680 OFFCURVE",
"390 616 OFFCURVE",
"390 520 CURVE SMOOTH",
"390 424 OFFCURVE",
"337 360 OFFCURVE",
"258 360 CURVE SMOOTH",
"82 360 LINE",
"82 340 LINE",
"256 340 LINE SMOOTH",
"350 340 OFFCURVE",
"412 411 OFFCURVE",
"412 520 CURVE SMOOTH",
"412 629 OFFCURVE",
"350 702 OFFCURVE",
"256 702 CURVE SMOOTH",
"64 702 LINE",
"64 0 LINE"
);
},
{
closed = 1;
nodes = (
"420 0 LINE",
"296 349 LINE",
"278 341 LINE",
"398 0 LINE"
);
}
);
width = 468;
},
{
layerId = "4E2227F3-52E4-4048-A8EE-327B486EF0A4";
paths = (
{
closed = 1;
nodes = (
"204 0 LINE",
"204 530 LINE",
"250 530 LINE SMOOTH",
"284 530 OFFCURVE",
"306 506 OFFCURVE",
"306 469 CURVE SMOOTH",
"306 432 OFFCURVE",
"284 407 OFFCURVE",
"250 407 CURVE SMOOTH",
"188 407 LINE",
"188 244 LINE",
"284 244 LINE SMOOTH",
"410 244 OFFCURVE",
"494 336 OFFCURVE",
"494 474 CURVE SMOOTH",
"494 610 OFFCURVE",
"406 700 OFFCURVE",
"274 700 CURVE SMOOTH",
"16 700 LINE",
"16 0 LINE"
);
},
{
closed = 1;
nodes = (
"517 0 LINE",
"399 335 LINE",
"221 335 LINE",
"323 0 LINE"
);
}
);
width = 529;
},
{
associatedMasterId = "262880E7-CFE1-4BDA-902E-E24798F3240A";
layerId = "BE946EE3-8AE1-439A-A927-2CED285D2AD4";
name = "{95,100}";
paths = (
{
closed = 1;
nodes = (
"138 0 LINE",
"138 611 LINE",
"255 611 LINE SMOOTH",
"314 611 OFFCURVE",
"353 566 OFFCURVE",
"353 498 CURVE SMOOTH",
"353 428 OFFCURVE",
"314 381 OFFCURVE",
"255 381 CURVE SMOOTH",
"128 381 LINE",
"128 292 LINE",
"268 292 LINE SMOOTH",
"376 292 OFFCURVE",
"448 375 OFFCURVE",
"448 500 CURVE SMOOTH",
"448 621 OFFCURVE",
"374 701 OFFCURVE",
"264 701 CURVE SMOOTH",
"43 701 LINE",
"43 0 LINE"
);
},
{
closed = 1;
nodes = (
"462 0 LINE",
"341 343 LINE",
"253 338 LINE",
"365 0 LINE"
);
}
);
width = 485;
}
);
rightKerningGroup = R;
unicode = 0052;
},
{
glyphname = S;
lastChange = "2016-11-22 01:02:29 +0000";
layers = (
{
layerId = "262880E7-CFE1-4BDA-902E-E24798F3240A";
paths = (
{
closed = 1;
nodes = (
"323 -9 OFFCURVE",
"388 49 OFFCURVE",
"388 149 CURVE SMOOTH",
"388 254 OFFCURVE",
"303 307 OFFCURVE",
"220 359 CURVE SMOOTH",
"141 409 OFFCURVE",
"62 457 OFFCURVE",
"62 550 CURVE SMOOTH",
"62 637 OFFCURVE",
"117 688 OFFCURVE",
"211 688 CURVE SMOOTH",
"305 688 OFFCURVE",
"360 636 OFFCURVE",
"360 548 CURVE SMOOTH",
"360 500 LINE",
"382 500 LINE",
"382 549 LINE SMOOTH",
"382 650 OFFCURVE",
"319 709 OFFCURVE",
"211 709 CURVE SMOOTH",
"103 709 OFFCURVE",
"40 651 OFFCURVE",
"40 552 CURVE SMOOTH",
"40 448 OFFCURVE",
"125 395 OFFCURVE",
"206 343 CURVE SMOOTH",
"285 292 OFFCURVE",
"366 243 OFFCURVE",
"366 149 CURVE SMOOTH",
"366 63 OFFCURVE",
"309 12 OFFCURVE",
"212 12 CURVE SMOOTH",
"117 12 OFFCURVE",
"62 63 OFFCURVE",
"62 151 CURVE SMOOTH",
"62 210 LINE",
"42 210 LINE",
"42 150 LINE SMOOTH",
"42 50 OFFCURVE",
"105 -9 OFFCURVE",
"213 -9 CURVE SMOOTH"
);
}
);
width = 428;
},
{
layerId = "4E2227F3-52E4-4048-A8EE-327B486EF0A4";
paths = (
{
closed = 1;
nodes = (
"365 -8 OFFCURVE",
"454 70 OFFCURVE",
"454 187 CURVE SMOOTH",
"454 287 OFFCURVE",
"388 338 OFFCURVE",
"282 412 CURVE SMOOTH",
"215 459 OFFCURVE",
"195 470 OFFCURVE",
"195 500 CURVE SMOOTH",
"195 524 OFFCURVE",
"208 538 OFFCURVE",
"229 538 CURVE SMOOTH",
"250 538 OFFCURVE",
"264 524 OFFCURVE",
"264 504 CURVE SMOOTH",
"264 490 LINE",
"449 490 LINE",
"449 509 LINE SMOOTH",
"449 628 OFFCURVE",
"362 708 OFFCURVE",
"230 708 CURVE SMOOTH",
"97 708 OFFCURVE",
"10 628 OFFCURVE",
"10 510 CURVE SMOOTH",
"10 387 OFFCURVE",
"105 322 OFFCURVE",
"180 272 CURVE SMOOTH",
"253 223 OFFCURVE",
"269 215 OFFCURVE",
"269 194 CURVE SMOOTH",
"269 175 OFFCURVE",
"255 162 OFFCURVE",
"235 162 CURVE SMOOTH",
"214 162 OFFCURVE",
"200 176 OFFCURVE",
"200 198 CURVE SMOOTH",
"200 211 LINE",
"15 211 LINE",
"15 180 LINE SMOOTH",
"15 70 OFFCURVE",
"100 -8 OFFCURVE",
"233 -8 CURVE SMOOTH"
);
}
);
width = 464;
},
{
associatedMasterId = "262880E7-CFE1-4BDA-902E-E24798F3240A";
layerId = "27CF7A20-12ED-41D4-A25C-14FEEBE4A60B";
name = "{95,100}";
paths = (
{
closed = 1;
nodes = (
"350 -9 OFFCURVE",
"426 58 OFFCURVE",
"426 166 CURVE SMOOTH",
"426 268 OFFCURVE",
"349 321 OFFCURVE",
"256 382 CURVE SMOOTH",
"182 431 OFFCURVE",
"129 463 OFFCURVE",
"129 528 CURVE SMOOTH",
"129 584 OFFCURVE",
"166 619 OFFCURVE",
"228 619 CURVE SMOOTH",
"290 619 OFFCURVE",
"327 583 OFFCURVE",
"327 525 CURVE SMOOTH",
"327 496 LINE",
"420 496 LINE",
"420 532 LINE SMOOTH",
"420 640 OFFCURVE",
"347 709 OFFCURVE",
"228 709 CURVE SMOOTH",
"109 709 OFFCURVE",
"36 641 OFFCURVE",
"36 534 CURVE SMOOTH",
"36 421 OFFCURVE",
"125 363 OFFCURVE",
"203 312 CURVE SMOOTH",
"280 262 OFFCURVE",
"332 231 OFFCURVE",
"332 169 CURVE SMOOTH",
"332 116 OFFCURVE",
"294 81 OFFCURVE",
"231 81 CURVE SMOOTH",
"168 81 OFFCURVE",
"131 116 OFFCURVE",
"131 176 CURVE SMOOTH",
"131 210 LINE",
"39 210 LINE",
"39 163 LINE SMOOTH",
"39 59 OFFCURVE",
"112 -9 OFFCURVE",
"231 -9 CURVE SMOOTH"
);
}
);
width = 461;
}
);
leftKerningGroup = S;
rightKerningGroup = S;
unicode = 0053;
},
{
glyphname = T;
lastChange = "2016-11-22 01:02:29 +0000";
layers = (
{
layerId = "262880E7-CFE1-4BDA-902E-E24798F3240A";
paths = (
{
closed = 1;
nodes = (
"218 0 LINE",
"218 689 LINE",
"196 689 LINE",
"196 0 LINE"
);
},
{
closed = 1;
nodes = (
"391 679 LINE",
"391 700 LINE",
"32 700 LINE",
"32 679 LINE"
);
}
);
width = 407;
},
{
layerId = "4E2227F3-52E4-4048-A8EE-327B486EF0A4";
paths = (
{
closed = 1;
nodes = (
"334 0 LINE",
"334 689 LINE",
"146 689 LINE",
"146 0 LINE"
);
},
{
closed = 1;
nodes = (
"476 530 LINE",
"476 700 LINE",
"8 700 LINE",
"8 530 LINE"
);
}
);
width = 480;
},
{
associatedMasterId = "262880E7-CFE1-4BDA-902E-E24798F3240A";
layerId = "B94D5C64-F458-403F-8B9E-4B02C0AC7203";
name = "{95,100}";
paths = (
{
closed = 1;
nodes = (
"262 0 LINE",
"262 689 LINE",
"168 689 LINE",
"168 0 LINE"
);
},
{
closed = 1;
nodes = (
"420 610 LINE",
"420 700 LINE",
"17 700 LINE",
"17 610 LINE"
);
}
);
width = 428;
}
);
leftKerningGroup = T;
rightKerningGroup = T;
unicode = 0054;
},
{
glyphname = U;
lastChange = "2016-11-22 01:02:29 +0000";
layers = (
{
layerId = "262880E7-CFE1-4BDA-902E-E24798F3240A";
paths = (
{
closed = 1;
nodes = (
"333 -9 OFFCURVE",
"403 59 OFFCURVE",
"403 160 CURVE SMOOTH",
"403 700 LINE",
"382 700 LINE",
"382 156 LINE SMOOTH",
"382 70 OFFCURVE",
"320 12 OFFCURVE",
"229 12 CURVE SMOOTH",
"139 12 OFFCURVE",
"78 70 OFFCURVE",
"78 156 CURVE SMOOTH",
"78 700 LINE",
"56 700 LINE",
"56 160 LINE SMOOTH",
"56 59 OFFCURVE",
"126 -9 OFFCURVE",
"229 -9 CURVE SMOOTH"
);
}
);
width = 459;
},
{
layerId = "4E2227F3-52E4-4048-A8EE-327B486EF0A4";
paths = (
{
closed = 1;
nodes = (
"382 -8 OFFCURVE",
"474 77 OFFCURVE",
"474 208 CURVE SMOOTH",
"474 700 LINE",
"286 700 LINE",
"286 208 LINE SMOOTH",
"286 180 OFFCURVE",
"269 162 OFFCURVE",
"244 162 CURVE SMOOTH",
"219 162 OFFCURVE",
"202 180 OFFCURVE",
"202 208 CURVE SMOOTH",
"202 700 LINE",
"14 700 LINE",
"14 208 LINE SMOOTH",
"14 77 OFFCURVE",
"106 -8 OFFCURVE",
"244 -8 CURVE SMOOTH"
);
}
);
width = 488;
},
{
associatedMasterId = "262880E7-CFE1-4BDA-902E-E24798F3240A";
layerId = "A0AE8F4B-DC00-47F8-9374-9C55383FCF6B";
name = "{95,100}";
paths = (
{
closed = 1;
nodes = (
"361 -9 OFFCURVE",
"440 67 OFFCURVE",
"440 181 CURVE SMOOTH",
"440 700 LINE",
"345 700 LINE",
"345 183 LINE SMOOTH",
"345 122 OFFCURVE",
"304 81 OFFCURVE",
"243 81 CURVE SMOOTH",
"182 81 OFFCURVE",
"141 122 OFFCURVE",
"141 183 CURVE SMOOTH",
"141 700 LINE",
"47 700 LINE",
"47 181 LINE SMOOTH",
"47 67 OFFCURVE",
"126 -9 OFFCURVE",
"243 -9 CURVE SMOOTH"
);
}
);
width = 487;
}
);
rightKerningGroup = U;
unicode = 0055;
},
{
glyphname = V;
lastChange = "2016-11-22 01:02:29 +0000";
layers = (
{
layerId = "262880E7-CFE1-4BDA-902E-E24798F3240A";
paths = (
{
closed = 1;
nodes = (
"237 0 LINE",
"428 700 LINE",
"405 700 LINE",
"226 42 LINE",
"46 700 LINE",
"24 700 LINE",
"215 0 LINE"
);
}
);
width = 452;
},
{
layerId = "4E2227F3-52E4-4048-A8EE-327B486EF0A4";
paths = (
{
closed = 1;
nodes = (
"371 0 LINE",
"533 700 LINE",
"335 700 LINE",
"275 305 LINE",
"209 700 LINE",
"6 700 LINE",
"168 0 LINE"
);
}
);
width = 539;
}
);
leftKerningGroup = V;
rightKerningGroup = V;
unicode = 0056;
},
{
glyphname = W;
lastChange = "2016-11-22 01:02:29 +0000";
layers = (
{
layerId = "262880E7-CFE1-4BDA-902E-E24798F3240A";
paths = (
{
closed = 1;
nodes = (
"193 0 LINE",
"334 657 LINE",
"471 0 LINE",
"492 0 LINE",
"642 700 LINE",
"620 700 LINE",
"483 40 LINE",
"342 700 LINE",
"324 700 LINE",
"183 40 LINE",
"46 700 LINE",
"24 700 LINE",
"171 0 LINE"
);
}
);
width = 666;
},
{
layerId = "4E2227F3-52E4-4048-A8EE-327B486EF0A4";
paths = (
{
closed = 1;
nodes = (
"318 0 LINE",
"363 362 LINE",
"417 0 LINE",
"581 0 LINE",
"720 700 LINE",
"527 700 LINE",
"500 342 LINE",
"443 700 LINE",
"278 700 LINE",
"236 342 LINE",
"204 700 LINE",
"6 700 LINE",
"153 0 LINE"
);
}
);
width = 726;
},
{
associatedMasterId = "262880E7-CFE1-4BDA-902E-E24798F3240A";
layerId = "130BD5C2-5A44-42B2-A8B6-C9B87CBC8DB3";
name = "{95,100}";
paths = (
{
closed = 1;
nodes = (
"244 0 LINE",
"343 528 LINE",
"444 0 LINE",
"527 0 LINE",
"673 700 LINE",
"576 700 LINE",
"487 177 LINE",
"383 700 LINE",
"301 700 LINE",
"203 177 LINE",
"112 700 LINE",
"13 700 LINE",
"160 0 LINE"
);
}
);
width = 685;
}
);
leftKerningGroup = V;
rightKerningGroup = V;
unicode = 0057;
},
{
glyphname = X;
lastChange = "2016-11-22 01:02:29 +0000";
layers = (
{
layerId = "262880E7-CFE1-4BDA-902E-E24798F3240A";
paths = (
{
closed = 1;
nodes = (
"49 0 LINE",
"214 330 LINE",
"380 0 LINE",
"405 0 LINE",
"225 349 LINE",
"405 700 LINE",
"380 700 LINE",
"214 369 LINE",
"49 700 LINE",
"24 700 LINE",
"203 350 LINE",
"24 0 LINE"
);
}
);
width = 429;
},
{
layerId = "4E2227F3-52E4-4048-A8EE-327B486EF0A4";
paths = (
{
closed = 1;
nodes = (
"197 0 LINE",
"253 162 LINE",
"308 0 LINE",
"499 0 LINE",
"352 350 LINE",
"499 700 LINE",
"307 700 LINE",
"253 537 LINE",
"198 700 LINE",
"6 700 LINE",
"153 350 LINE",
"6 0 LINE"
);
}
);
width = 505;
}
);
rightKerningGroup = X;
unicode = 0058;
},
{
glyphname = Y;
lastChange = "2016-11-22 01:02:29 +0000";
layers = (
{
layerId = "262880E7-CFE1-4BDA-902E-E24798F3240A";
paths = (
{
closed = 1;
nodes = (
"222 0 LINE",
"222 339 LINE",
"397 700 LINE",
"375 700 LINE",
"211 358 LINE",
"46 700 LINE",
"24 700 LINE",
"200 339 LINE",
"200 0 LINE"
);
}
);
width = 421;
},
{
layerId = "4E2227F3-52E4-4048-A8EE-327B486EF0A4";
paths = (
{
closed = 1;
nodes = (
"346 2 LINE",
"346 251 LINE",
"499 700 LINE",
"301 700 LINE",
"253 452 LINE",
"204 700 LINE",
"6 700 LINE",
"158 251 LINE",
"158 2 LINE"
);
}
);
width = 505;
}
);
leftKerningGroup = Y;
unicode = 0059;
},
{
glyphname = Z;
lastChange = "2016-11-22 01:02:29 +0000";
layers = (
{
layerId = "262880E7-CFE1-4BDA-902E-E24798F3240A";
paths = (
{
closed = 1;
nodes = (
"355 0 LINE",
"355 21 LINE",
"49 21 LINE",
"355 679 LINE",
"355 700 LINE",
"24 700 LINE",
"24 679 LINE",
"331 679 LINE",
"24 21 LINE",
"24 0 LINE"
);
}
);
width = 387;
},
{
layerId = "4E2227F3-52E4-4048-A8EE-327B486EF0A4";
paths = (
{
closed = 1;
nodes = (
"416 0 LINE",
"416 170 LINE",
"202 170 LINE",
"416 530 LINE",
"416 700 LINE",
"6 700 LINE",
"6 530 LINE",
"218 530 LINE",
"6 170 LINE",
"6 0 LINE"
);
}
);
width = 424;
}
);
leftKerningGroup = Z;
rightKerningGroup = Z;
unicode = 005A;
},
{
glyphname = a;
lastChange = "2016-11-22 01:24:23 +0000";
layers = (
{
layerId = "262880E7-CFE1-4BDA-902E-E24798F3240A";
paths = (
{
closed = 1;
nodes = (
"374 0 LINE",
"374 342 LINE SMOOTH",
"374 447 OFFCURVE",
"318 508 OFFCURVE",
"223 508 CURVE SMOOTH",
"126 508 OFFCURVE",
"69 450 OFFCURVE",
"69 352 CURVE SMOOTH",
"69 351 LINE",
"91 351 LINE",
"91 355 LINE SMOOTH",
"91 438 OFFCURVE",
"140 487 OFFCURVE",
"223 487 CURVE SMOOTH",
"304 487 OFFCURVE",
"352 434 OFFCURVE",
"352 345 CURVE SMOOTH",
"352 0 LINE"
);
},
{
closed = 1;
nodes = (
"282 -8 OFFCURVE",
"368 37 OFFCURVE",
"368 142 CURVE",
"368 267 LINE",
"283 267 LINE",
"149 267 OFFCURVE",
"56 239 OFFCURVE",
"56 126 CURVE SMOOTH",
"56 28 OFFCURVE",
"124 -8 OFFCURVE",
"199 -8 CURVE SMOOTH"
);
},
{
closed = 1;
nodes = (
"137 15 OFFCURVE",
"78 43 OFFCURVE",
"78 124 CURVE SMOOTH",
"78 219 OFFCURVE",
"160 246 OFFCURVE",
"283 246 CURVE",
"352 246 LINE",
"352 142 LINE SMOOTH",
"352 54 OFFCURVE",
"272 11 OFFCURVE",
"199 13 CURVE SMOOTH"
);
}
);
width = 446;
},
{
layerId = "4E2227F3-52E4-4048-A8EE-327B486EF0A4";
paths = (
{
closed = 1;
nodes = (
"451 0 LINE",
"451 360 LINE SMOOTH",
"451 461 OFFCURVE",
"364 528 OFFCURVE",
"234 528 CURVE SMOOTH",
"107 528 OFFCURVE",
"20 465 OFFCURVE",
"20 370 CURVE SMOOTH",
"20 339 LINE",
"208 332 LINE",
"208 337 LINE SMOOTH",
"208 355 OFFCURVE",
"219 367 OFFCURVE",
"234 367 CURVE SMOOTH",
"251 367 OFFCURVE",
"263 355 OFFCURVE",
"263 337 CURVE SMOOTH",
"263 0 LINE"
);
},
{
closed = 1;
nodes = (
"252 -7 OFFCURVE",
"352 89 OFFCURVE",
"352 197 CURVE",
"352 313 LINE",
"223 313 LINE",
"97 313 OFFCURVE",
"14 297 OFFCURVE",
"14 151 CURVE SMOOTH",
"14 9 OFFCURVE",
"88 -9 OFFCURVE",
"157 -8 CURVE SMOOTH"
);
},
{
closed = 1;
nodes = (
"218 125 OFFCURVE",
"206 134 OFFCURVE",
"206 153 CURVE SMOOTH",
"206 170 OFFCURVE",
"218 185 OFFCURVE",
"237 185 CURVE",
"263 185 LINE",
"263 152 LINE SMOOTH",
"263 135 OFFCURVE",
"245 125 OFFCURVE",
"231 125 CURVE SMOOTH"
);
}
);
width = 469;
},
{
associatedMasterId = "262880E7-CFE1-4BDA-902E-E24798F3240A";
layerId = "C1D225D7-6ABC-447B-B6D3-D45828173093";
name = "{95,100}";
paths = (
{
closed = 1;
nodes = (
"399 0 LINE",
"399 350 LINE SMOOTH",
"399 453 OFFCURVE",
"332 517 OFFCURVE",
"220 517 CURVE SMOOTH",
"112 517 OFFCURVE",
"42 457 OFFCURVE",
"42 360 CURVE SMOOTH",
"42 346 LINE",
"136 343 LINE",
"136 347 LINE SMOOTH",
"136 402 OFFCURVE",
"167 435 OFFCURVE",
"220 435 CURVE SMOOTH",
"274 435 OFFCURVE",
"304 400 OFFCURVE",
"304 342 CURVE SMOOTH",
"304 0 LINE"
);
},
{
closed = 1;
nodes = (
"274 -8 OFFCURVE",
"343 61 OFFCURVE",
"343 146 CURVE",
"343 290 LINE",
"247 290 LINE",
"120 290 OFFCURVE",
"25 267 OFFCURVE",
"25 142 CURVE SMOOTH",
"25 21 OFFCURVE",
"113 -8 OFFCURVE",
"176 -8 CURVE SMOOTH"
);
},
{
closed = 1;
nodes = (
"163 78 OFFCURVE",
"121 90 OFFCURVE",
"121 142 CURVE SMOOTH",
"121 190 OFFCURVE",
"162 215 OFFCURVE",
"247 215 CURVE",
"304 215 LINE",
"304 150 LINE SMOOTH",
"304 122 OFFCURVE",
"264 78 OFFCURVE",
"198 78 CURVE SMOOTH"
);
}
);
width = 437;
}
);
leftKerningGroup = a;
rightKerningGroup = b;
unicode = 0061;
},
{
glyphname = b;
lastChange = "2016-11-22 01:02:29 +0000";
layers = (
{
components = (
{
name = b.bowl;
transform = "{1, 0, 0, 1, 76, 0}";
}
);
layerId = "262880E7-CFE1-4BDA-902E-E24798F3240A";
paths = (
{
closed = 1;
nodes = (
"94 0 LINE",
"94 700 LINE",
"72 700 LINE",
"72 0 LINE"
);
}
);
width = 442;
},
{
components = (
{
name = b.bowl;
transform = "{1, 0, 0, 1, 169, 0}";
}
);
layerId = "4E2227F3-52E4-4048-A8EE-327B486EF0A4";
paths = (
{
closed = 1;
nodes = (
"206 0 LINE",
"206 700 LINE",
"18 700 LINE",
"18 0 LINE"
);
}
);
width = 466;
}
);
leftKerningGroup = b;
rightKerningGroup = n;
unicode = 0062;
},
{
glyphname = c;
lastChange = "2016-11-22 01:02:29 +0000";
layers = (
{
layerId = "262880E7-CFE1-4BDA-902E-E24798F3240A";
paths = (
{
closed = 1;
nodes = (
"310 -8 OFFCURVE",
"373 58 OFFCURVE",
"373 138 CURVE SMOOTH",
"373 139 LINE",
"351 139 LINE",
"351 135 LINE SMOOTH",
"351 70 OFFCURVE",
"296 13 OFFCURVE",
"215 13 CURVE SMOOTH",
"133 13 OFFCURVE",
"78 70 OFFCURVE",
"78 155 CURVE SMOOTH",
"78 345 LINE SMOOTH",
"78 430 OFFCURVE",
"133 487 OFFCURVE",
"215 487 CURVE SMOOTH",
"296 487 OFFCURVE",
"351 430 OFFCURVE",
"351 365 CURVE SMOOTH",
"351 361 LINE",
"373 361 LINE",
"373 362 LINE SMOOTH",
"373 442 OFFCURVE",
"310 508 OFFCURVE",
"215 508 CURVE SMOOTH",
"119 508 OFFCURVE",
"56 442 OFFCURVE",
"56 342 CURVE SMOOTH",
"56 158 LINE SMOOTH",
"56 58 OFFCURVE",
"119 -8 OFFCURVE",
"215 -8 CURVE SMOOTH"
);
}
);
width = 421;
},
{
layerId = "4E2227F3-52E4-4048-A8EE-327B486EF0A4";
paths = (
{
closed = 1;
nodes = (
"366 -7 OFFCURVE",
"454 59 OFFCURVE",
"454 172 CURVE SMOOTH",
"454 202 LINE",
"266 206 LINE",
"266 185 LINE SMOOTH",
"266 166 OFFCURVE",
"253 153 OFFCURVE",
"234 153 CURVE SMOOTH",
"215 153 OFFCURVE",
"202 166 OFFCURVE",
"202 185 CURVE SMOOTH",
"202 335 LINE SMOOTH",
"202 354 OFFCURVE",
"215 367 OFFCURVE",
"234 367 CURVE SMOOTH",
"253 367 OFFCURVE",
"266 354 OFFCURVE",
"266 335 CURVE SMOOTH",
"266 314 LINE",
"454 317 LINE",
"454 348 LINE SMOOTH",
"454 462 OFFCURVE",
"366 528 OFFCURVE",
"234 528 CURVE SMOOTH",
"102 528 OFFCURVE",
"14 462 OFFCURVE",
"14 348 CURVE SMOOTH",
"14 172 LINE SMOOTH",
"14 59 OFFCURVE",
"102 -7 OFFCURVE",
"234 -7 CURVE SMOOTH"
);
}
);
width = 466;
},
{
associatedMasterId = "262880E7-CFE1-4BDA-902E-E24798F3240A";
layerId = "ACF168AC-FE90-447F-BF07-96C78B49E18D";
name = "{95,100}";
paths = (
{
closed = 1;
nodes = (
"334 -8 OFFCURVE",
"408 58 OFFCURVE",
"408 153 CURVE SMOOTH",
"408 166 LINE",
"314 168 LINE",
"314 165 LINE SMOOTH",
"314 120 OFFCURVE",
"277 82 OFFCURVE",
"223 82 CURVE SMOOTH",
"169 82 OFFCURVE",
"132 120 OFFCURVE",
"132 176 CURVE SMOOTH",
"132 333 LINE SMOOTH",
"132 389 OFFCURVE",
"169 427 OFFCURVE",
"223 427 CURVE SMOOTH",
"277 427 OFFCURVE",
"314 389 OFFCURVE",
"314 344 CURVE SMOOTH",
"314 341 LINE",
"408 343 LINE",
"408 356 LINE SMOOTH",
"408 451 OFFCURVE",
"334 517 OFFCURVE",
"223 517 CURVE SMOOTH",
"112 517 OFFCURVE",
"38 451 OFFCURVE",
"38 345 CURVE SMOOTH",
"38 164 LINE SMOOTH",
"38 58 OFFCURVE",
"112 -8 OFFCURVE",
"223 -8 CURVE SMOOTH"
);
}
);
width = 441;
}
);
leftKerningGroup = o;
rightKerningGroup = c;
unicode = 0063;
},
{
glyphname = e;
lastChange = "2016-11-22 01:08:38 +0000";
layers = (
{
layerId = "262880E7-CFE1-4BDA-902E-E24798F3240A";
paths = (
{
closed = 1;
nodes = (
"349 108 LINE",
"334 50 OFFCURVE",
"284 13 OFFCURVE",
"216 13 CURVE SMOOTH",
"133 13 OFFCURVE",
"78 70 OFFCURVE",
"78 155 CURVE SMOOTH",
"78 345 LINE SMOOTH",
"78 430 OFFCURVE",
"133 487 OFFCURVE",
"215 487 CURVE SMOOTH",
"298 487 OFFCURVE",
"353 430 OFFCURVE",
"353 345 CURVE SMOOTH",
"353 267 LINE",
"68 267 LINE",
"68 246 LINE",
"375 246 LINE",
"375 342 LINE SMOOTH",
"375 442 OFFCURVE",
"312 508 OFFCURVE",
"215 508 CURVE SMOOTH",
"119 508 OFFCURVE",
"56 442 OFFCURVE",
"56 342 CURVE SMOOTH",
"56 158 LINE SMOOTH",
"56 58 OFFCURVE",
"119 -8 OFFCURVE",
"216 -8 CURVE SMOOTH",
"298 -8 OFFCURVE",
"356 37 OFFCURVE",
"371 108 CURVE"
);
}
);
width = 431;
},
{
layerId = "4E2227F3-52E4-4048-A8EE-327B486EF0A4";
paths = (
{
closed = 1;
nodes = (
"266 183 LINE",
"264 163 OFFCURVE",
"253 153 OFFCURVE",
"234 153 CURVE SMOOTH",
"215 153 OFFCURVE",
"202 166 OFFCURVE",
"202 185 CURVE SMOOTH",
"202 335 LINE SMOOTH",
"202 354 OFFCURVE",
"215 367 OFFCURVE",
"234 367 CURVE SMOOTH",
"253 367 OFFCURVE",
"266 354 OFFCURVE",
"266 335 CURVE SMOOTH",
"266 313 LINE",
"130 313 LINE",
"130 208 LINE",
"454 208 LINE",
"454 348 LINE SMOOTH",
"454 456 OFFCURVE",
"366 528 OFFCURVE",
"234 528 CURVE SMOOTH",
"102 528 OFFCURVE",
"14 456 OFFCURVE",
"14 348 CURVE SMOOTH",
"14 172 LINE SMOOTH",
"14 65 OFFCURVE",
"102 -7 OFFCURVE",
"234 -7 CURVE SMOOTH",
"366 -7 OFFCURVE",
"454 67 OFFCURVE",
"454 179 CURVE"
);
}
);
width = 468;
},
{
associatedMasterId = "4E2227F3-52E4-4048-A8EE-327B486EF0A4";
layerId = "9373DB5F-FDE9-4915-B1CD-D897B1E08320";
name = "Nov 21 16, 16:41";
paths = (
{
closed = 1;
nodes = (
"366 -7 OFFCURVE",
"454 59 OFFCURVE",
"454 172 CURVE SMOOTH",
"454 199 LINE",
"266 199 LINE",
"266 185 LINE SMOOTH",
"266 166 OFFCURVE",
"253 153 OFFCURVE",
"234 153 CURVE SMOOTH",
"215 153 OFFCURVE",
"202 166 OFFCURVE",
"202 185 CURVE SMOOTH",
"202 335 LINE SMOOTH",
"202 354 OFFCURVE",
"215 367 OFFCURVE",
"234 367 CURVE SMOOTH",
"253 367 OFFCURVE",
"266 354 OFFCURVE",
"266 335 CURVE SMOOTH",
"266 305 LINE",
"130 305 LINE",
"130 229 LINE",
"454 229 LINE",
"454 348 LINE SMOOTH",
"454 462 OFFCURVE",
"366 528 OFFCURVE",
"234 528 CURVE SMOOTH",
"102 528 OFFCURVE",
"14 462 OFFCURVE",
"14 348 CURVE SMOOTH",
"14 172 LINE SMOOTH",
"14 59 OFFCURVE",
"102 -7 OFFCURVE",
"234 -7 CURVE SMOOTH"
);
}
);
width = 468;
},
{
associatedMasterId = "262880E7-CFE1-4BDA-902E-E24798F3240A";
layerId = "2153B60D-5D07-46F5-B0B1-14ACB4774733";
name = "Nov 21 16, 16:41";
paths = (
{
closed = 1;
nodes = (
"349 110 LINE",
"335 51 OFFCURVE",
"285 13 OFFCURVE",
"216 13 CURVE SMOOTH",
"133 13 OFFCURVE",
"78 70 OFFCURVE",
"78 155 CURVE SMOOTH",
"78 345 LINE SMOOTH",
"78 430 OFFCURVE",
"133 487 OFFCURVE",
"215 487 CURVE SMOOTH",
"298 487 OFFCURVE",
"353 430 OFFCURVE",
"353 345 CURVE SMOOTH",
"353 262 LINE",
"68 262 LINE",
"68 241 LINE",
"375 241 LINE",
"375 342 LINE SMOOTH",
"375 442 OFFCURVE",
"312 508 OFFCURVE",
"215 508 CURVE SMOOTH",
"119 508 OFFCURVE",
"56 442 OFFCURVE",
"56 342 CURVE SMOOTH",
"56 158 LINE SMOOTH",
"56 58 OFFCURVE",
"119 -8 OFFCURVE",
"216 -8 CURVE SMOOTH",
"299 -8 OFFCURVE",
"357 38 OFFCURVE",
"371 110 CURVE"
);
}
);
width = 431;
},
{
associatedMasterId = "262880E7-CFE1-4BDA-902E-E24798F3240A";
layerId = "97C22096-986C-4BA2-9F55-2CF144B537C3";
name = "{95,100}";
paths = (
{
closed = 1;
nodes = (
"313 149 LINE",
"303 107 OFFCURVE",
"270 82 OFFCURVE",
"224 82 CURVE SMOOTH",
"169 82 OFFCURVE",
"132 120 OFFCURVE",
"132 176 CURVE SMOOTH",
"132 333 LINE SMOOTH",
"132 389 OFFCURVE",
"169 427 OFFCURVE",
"223 427 CURVE SMOOTH",
"278 427 OFFCURVE",
"315 389 OFFCURVE",
"315 333 CURVE SMOOTH",
"315 304 LINE",
"95 304 LINE",
"95 217 LINE",
"409 217 LINE",
"409 345 LINE SMOOTH",
"409 448 OFFCURVE",
"336 517 OFFCURVE",
"223 517 CURVE SMOOTH",
"112 517 OFFCURVE",
"38 448 OFFCURVE",
"38 345 CURVE SMOOTH",
"38 164 LINE SMOOTH",
"38 61 OFFCURVE",
"112 -8 OFFCURVE",
"224 -8 CURVE SMOOTH",
"328 -8 OFFCURVE",
"399 58 OFFCURVE",
"407 147 CURVE"
);
}
);
width = 447;
}
);
leftKerningGroup = o;
rightKerningGroup = o;
unicode = 0065;
},
{
glyphname = f;
lastChange = "2016-11-22 01:20:07 +0000";
layers = (
{
layerId = "262880E7-CFE1-4BDA-902E-E24798F3240A";
paths = (
{
closed = 1;
nodes = (
"118 0 LINE",
"118 550 LINE SMOOTH",
"118 637 OFFCURVE",
"146 689 OFFCURVE",
"256 689 CURVE",
"256 710 LINE",
"132 710 OFFCURVE",
"96 650 OFFCURVE",
"96 550 CURVE SMOOTH",
"96 0 LINE"
);
},
{
closed = 1;
nodes = (
"228 479 LINE",
"228 500 LINE",
"23 500 LINE",
"23 479 LINE"
);
}
);
width = 244;
},
{
layerId = "4E2227F3-52E4-4048-A8EE-327B486EF0A4";
paths = (
{
closed = 1;
nodes = (
"233 0 LINE",
"233 539 LINE",
"233 557 OFFCURVE",
"247 572 OFFCURVE",
"277 575 CURVE",
"277 700 LINE",
"129 707 OFFCURVE",
"45 683 OFFCURVE",
"45 556 CURVE",
"45 0 LINE"
);
},
{
closed = 1;
nodes = (
"297 380 LINE",
"297 520 LINE",
"0 520 LINE",
"0 380 LINE"
);
}
);
width = 301;
},
{
associatedMasterId = "262880E7-CFE1-4BDA-902E-E24798F3240A";
layerId = "C2F74522-438E-462A-BECA-EA0F38E71471";
name = "{95,100}";
paths = (
{
closed = 1;
nodes = (
"168 0 LINE",
"168 545 LINE SMOOTH",
"168 602 OFFCURVE",
"190 638 OFFCURVE",
"265 639 CURVE",
"265 706 LINE",
"131 709 OFFCURVE",
"74 664 OFFCURVE",
"74 553 CURVE SMOOTH",
"74 0 LINE"
);
},
{
closed = 1;
nodes = (
"258 436 LINE",
"258 509 LINE",
"13 509 LINE",
"13 436 LINE"
);
}
);
width = 269;
}
);
leftKerningGroup = t;
unicode = 0066;
},
{
glyphname = g;
lastChange = "2016-11-22 01:02:30 +0000";
layers = (
{
components = (
{
name = b.bowl;
transform = "{-1, 0, 0, 1, 382, 0}";
}
);
layerId = "262880E7-CFE1-4BDA-902E-E24798F3240A";
paths = (
{
closed = 1;
nodes = (
"319 -203 OFFCURVE",
"387 -137 OFFCURVE",
"387 0 CURVE SMOOTH",
"387 500 LINE",
"364 500 LINE",
"364 0 LINE SMOOTH",
"364 -123 OFFCURVE",
"304 -182 OFFCURVE",
"193 -178 CURVE",
"193 -199 LINE"
);
}
);
width = 459;
},
{
components = (
{
name = b.bowl;
transform = "{-1, 0, 0, 1, 301, 0}";
}
);
layerId = "4E2227F3-52E4-4048-A8EE-327B486EF0A4";
paths = (
{
closed = 1;
nodes = (
"395 -226 OFFCURVE",
"452 -115 OFFCURVE",
"452 34 CURVE SMOOTH",
"452 520 LINE",
"264 520 LINE",
"264 34 LINE SMOOTH",
"264 -14 OFFCURVE",
"247 -47 OFFCURVE",
"103 -43 CURVE",
"103 -207 LINE"
);
}
);
width = 470;
}
);
leftKerningGroup = d;
rightKerningGroup = g;
unicode = 0067;
},
{
glyphname = h;
lastChange = "2016-11-22 01:02:29 +0000";
layers = (
{
components = (
{
name = n.curve;
transform = "{1, 0, 0, 1, 77, 0}";
}
);
layerId = "262880E7-CFE1-4BDA-902E-E24798F3240A";
paths = (
{
closed = 1;
nodes = (
"94 0 LINE",
"94 700 LINE",
"72 700 LINE",
"72 0 LINE"
);
}
);
width = 438;
},
{
components = (
{
name = n.curve;
transform = "{1, 0, 0, 1, 169, 0}";
}
);
layerId = "4E2227F3-52E4-4048-A8EE-327B486EF0A4";
paths = (
{
closed = 1;
nodes = (
"206 0 LINE",
"206 700 LINE",
"18 700 LINE",
"18 0 LINE"
);
}
);
width = 466;
}
);
leftKerningGroup = b;
rightKerningGroup = n;
unicode = 0068;
},
{
glyphname = i;
lastChange = "2016-11-22 01:02:29 +0000";
layers = (
{
layerId = "262880E7-CFE1-4BDA-902E-E24798F3240A";
paths = (
{
closed = 1;
nodes = (
"94 0 LINE",
"94 500 LINE",
"72 500 LINE",
"72 0 LINE"
);
},
{
closed = 1;
nodes = (
"99 660 OFFCURVE",
"112 673 OFFCURVE",
"112 690 CURVE SMOOTH",
"112 706 OFFCURVE",
"99 719 OFFCURVE",
"83 719 CURVE SMOOTH",
"66 719 OFFCURVE",
"53 706 OFFCURVE",
"53 690 CURVE SMOOTH",
"53 673 OFFCURVE",
"66 660 OFFCURVE",
"83 660 CURVE SMOOTH"
);
}
);
width = 166;
},
{
layerId = "4E2227F3-52E4-4048-A8EE-327B486EF0A4";
paths = (
{
closed = 1;
nodes = (
"206 0 LINE",
"206 520 LINE",
"18 520 LINE",
"18 0 LINE"
);
},
{
closed = 1;
nodes = (
"175 540 OFFCURVE",
"217 582 OFFCURVE",
"217 645 CURVE SMOOTH",
"217 708 OFFCURVE",
"175 750 OFFCURVE",
"112 750 CURVE SMOOTH",
"49 750 OFFCURVE",
"7 708 OFFCURVE",
"7 645 CURVE SMOOTH",
"7 582 OFFCURVE",
"49 540 OFFCURVE",
"112 540 CURVE SMOOTH"
);
}
);
width = 224;
}
);
leftKerningGroup = i;
unicode = 0069;
},
{
glyphname = j;
lastChange = "2016-11-22 01:02:29 +0000";
layers = (
{
layerId = "262880E7-CFE1-4BDA-902E-E24798F3240A";
paths = (
{
closed = 1;
nodes = (
"70 -211 OFFCURVE",
"118 -159 OFFCURVE",
"118 -74 CURVE SMOOTH",
"118 500 LINE",
"96 500 LINE",
"96 -74 LINE SMOOTH",
"96 -146 OFFCURVE",
"56 -190 OFFCURVE",
"-10 -190 CURVE",
"-10 -211 LINE"
);
},
{
closed = 1;
nodes = (
"125 660 OFFCURVE",
"136 671 OFFCURVE",
"136 690 CURVE SMOOTH",
"136 709 OFFCURVE",
"125 719 OFFCURVE",
"107 719 CURVE SMOOTH",
"89 719 OFFCURVE",
"77 709 OFFCURVE",
"77 690 CURVE SMOOTH",
"77 671 OFFCURVE",
"89 660 OFFCURVE",
"107 660 CURVE SMOOTH"
);
}
);
width = 198;
},
{
layerId = "4E2227F3-52E4-4048-A8EE-327B486EF0A4";
paths = (
{
closed = 1;
nodes = (
"205 -210 OFFCURVE",
"212 -120 OFFCURVE",
"212 29 CURVE SMOOTH",
"212 520 LINE",
"24 520 LINE",
"24 29 LINE SMOOTH",
"24 -19 OFFCURVE",
"7 -49 OFFCURVE",
"-77 -41 CURVE",
"-77 -201 LINE"
);
},
{
closed = 1;
nodes = (
"180 540 OFFCURVE",
"223 587 OFFCURVE",
"223 645 CURVE SMOOTH",
"223 703 OFFCURVE",
"171 749 OFFCURVE",
"118 749 CURVE SMOOTH",
"65 749 OFFCURVE",
"13 703 OFFCURVE",
"13 645 CURVE SMOOTH",
"13 587 OFFCURVE",
"56 540 OFFCURVE",
"118 540 CURVE SMOOTH"
);
}
);
width = 232;
}
);
leftKerningGroup = j;
unicode = 006A;
},
{
glyphname = k;
lastChange = "2016-11-22 01:02:29 +0000";
layers = (
{
guideLines = (
{
angle = 180;
position = "{273, 0}";
showMeasurement = 1;
},
{
angle = 180;
position = "{219, 332}";
showMeasurement = 1;
}
);
layerId = "262880E7-CFE1-4BDA-902E-E24798F3240A";
paths = (
{
closed = 1;
nodes = (
"102 0 LINE",
"102 201 LINE",
"217 327 LINE",
"369 0 LINE",
"393 0 LINE",
"233 344 LINE",
"375 500 LINE",
"347 500 LINE",
"102 227 LINE",
"102 700 LINE",
"80 700 LINE",
"80 0 LINE"
);
}
);
width = 417;
},
{
layerId = "4E2227F3-52E4-4048-A8EE-327B486EF0A4";
paths = (
{
closed = 1;
nodes = (
"208 0 LINE",
"208 137 LINE",
"227 166 LINE",
"288 0 LINE",
"482 0 LINE",
"342 315 LINE",
"475 520 LINE",
"281 520 LINE",
"208 392 LINE",
"208 700 LINE",
"20 700 LINE",
"20 0 LINE"
);
}
);
width = 488;
}
);
leftKerningGroup = b;
rightKerningGroup = k;
unicode = 006B;
},
{
glyphname = l;
lastChange = "2016-11-22 01:02:29 +0000";
layers = (
{
layerId = "262880E7-CFE1-4BDA-902E-E24798F3240A";
paths = (
{
closed = 1;
nodes = (
"102 0 LINE",
"102 700 LINE",
"80 700 LINE",
"80 0 LINE"
);
}
);
width = 182;
},
{
layerId = "4E2227F3-52E4-4048-A8EE-327B486EF0A4";
paths = (
{
closed = 1;
nodes = (
"208 0 LINE",
"208 700 LINE",
"20 700 LINE",
"20 0 LINE"
);
}
);
width = 228;
}
);
leftKerningGroup = l;
rightKerningGroup = l;
unicode = 006C;
},
{
glyphname = m;
lastChange = "2016-11-22 01:02:29 +0000";
layers = (
{
layerId = "262880E7-CFE1-4BDA-902E-E24798F3240A";
paths = (
{
closed = 1;
nodes = (
"651 0 LINE",
"651 344 LINE SMOOTH",
"651 443 OFFCURVE",
"596 504 OFFCURVE",
"508 504 CURVE SMOOTH",
"414 504 OFFCURVE",
"355 443 OFFCURVE",
"355 343 CURVE",
"373 343 LINE",
"372 428 OFFCURVE",
"422 483 OFFCURVE",
"505 483 CURVE SMOOTH",
"582 483 OFFCURVE",
"629 429 OFFCURVE",
"629 341 CURVE SMOOTH",
"629 0 LINE"
);
},
{
closed = 1;
nodes = (
"373 0 LINE",
"373 344 LINE SMOOTH",
"373 443 OFFCURVE",
"318 504 OFFCURVE",
"229 504 CURVE SMOOTH",
"135 504 OFFCURVE",
"77 443 OFFCURVE",
"77 343 CURVE",
"94 343 LINE",
"94 430 OFFCURVE",
"145 483 OFFCURVE",
"227 483 CURVE SMOOTH",
"303 483 OFFCURVE",
"350 429 OFFCURVE",
"350 341 CURVE SMOOTH",
"350 0 LINE"
);
},
{
closed = 1;
nodes = (
"94 0 LINE",
"94 500 LINE",
"72 500 LINE",
"72 0 LINE"
);
}
);
width = 707;
},
{
layerId = "4E2227F3-52E4-4048-A8EE-327B486EF0A4";
paths = (
{
closed = 1;
nodes = (
"698 0 LINE",
"698 348 LINE SMOOTH",
"698 459 OFFCURVE",
"654 528 OFFCURVE",
"549 528 CURVE SMOOTH",
"506 528 OFFCURVE",
"411 521 OFFCURVE",
"415 323 CURVE",
"452 323 LINE",
"452 343 OFFCURVE",
"464 356 OFFCURVE",
"481 356 CURVE SMOOTH",
"498 356 OFFCURVE",
"510 343 OFFCURVE",
"510 323 CURVE SMOOTH",
"510 0 LINE"
);
},
{
closed = 1;
nodes = (
"452 0 LINE",
"452 348 LINE SMOOTH",
"452 459 OFFCURVE",
"408 528 OFFCURVE",
"303 528 CURVE SMOOTH",
"260 528 OFFCURVE",
"165 521 OFFCURVE",
"169 323 CURVE",
"206 323 LINE",
"206 343 OFFCURVE",
"218 356 OFFCURVE",
"235 356 CURVE SMOOTH",
"252 356 OFFCURVE",
"264 343 OFFCURVE",
"264 323 CURVE SMOOTH",
"264 0 LINE"
);
},
{
closed = 1;
nodes = (
"206 0 LINE",
"206 520 LINE",
"18 520 LINE",
"18 0 LINE"
);
}
);
width = 712;
}
);
leftKerningGroup = n;
rightKerningGroup = h;
unicode = 006D;
},
{
glyphname = n;
lastChange = "2016-11-22 01:15:42 +0000";
layers = (
{
components = (
{
name = n.curve;
transform = "{1, 0, 0, 1, 77, 0}";
}
);
layerId = "262880E7-CFE1-4BDA-902E-E24798F3240A";
paths = (
{
closed = 1;
nodes = (
"94 0 LINE",
"94 500 LINE",
"72 500 LINE",
"72 0 LINE"
);
}
);
width = 438;
},
{
components = (
{
name = n.curve;
transform = "{1, 0, 0, 1, 169, 0}";
}
);
layerId = "4E2227F3-52E4-4048-A8EE-327B486EF0A4";
paths = (
{
closed = 1;
nodes = (
"206 0 LINE",
"206 520 LINE",
"18 520 LINE",
"18 0 LINE"
);
}
);
width = 466;
}
);
leftKerningGroup = n;
rightKerningGroup = n;
unicode = 006E;
},
{
glyphname = o;
lastChange = "2016-11-22 01:02:29 +0000";
layers = (
{
guideLines = (
{
angle = 180;
position = "{223, 250}";
showMeasurement = 1;
},
{
angle = 120;
position = "{223, 250}";
showMeasurement = 1;
},
{
angle = 60;
position = "{223, 250}";
showMeasurement = 1;
}
);
layerId = "262880E7-CFE1-4BDA-902E-E24798F3240A";
paths = (
{
closed = 1;
nodes = (
"304 -8 OFFCURVE",
"367 58 OFFCURVE",
"367 158 CURVE SMOOTH",
"367 342 LINE SMOOTH",
"367 442 OFFCURVE",
"304 508 OFFCURVE",
"207 508 CURVE SMOOTH",
"111 508 OFFCURVE",
"48 442 OFFCURVE",
"48 342 CURVE SMOOTH",
"48 158 LINE SMOOTH",
"48 58 OFFCURVE",
"111 -8 OFFCURVE",
"207 -8 CURVE SMOOTH"
);
},
{
closed = 1;
nodes = (
"125 13 OFFCURVE",
"70 70 OFFCURVE",
"70 155 CURVE SMOOTH",
"70 345 LINE SMOOTH",
"70 430 OFFCURVE",
"125 487 OFFCURVE",
"207 487 CURVE SMOOTH",
"290 487 OFFCURVE",
"345 430 OFFCURVE",
"345 345 CURVE SMOOTH",
"345 155 LINE SMOOTH",
"345 70 OFFCURVE",
"290 13 OFFCURVE",
"207 13 CURVE SMOOTH"
);
}
);
width = 415;
},
{
layerId = "4E2227F3-52E4-4048-A8EE-327B486EF0A4";
paths = (
{
closed = 1;
nodes = (
"364 -7 OFFCURVE",
"452 59 OFFCURVE",
"452 172 CURVE SMOOTH",
"452 348 LINE SMOOTH",
"452 462 OFFCURVE",
"364 532 OFFCURVE",
"232 532 CURVE SMOOTH",
"100 532 OFFCURVE",
"12 462 OFFCURVE",
"12 348 CURVE SMOOTH",
"12 172 LINE SMOOTH",
"12 59 OFFCURVE",
"100 -7 OFFCURVE",
"232 -7 CURVE SMOOTH"
);
},
{
closed = 1;
nodes = (
"213 153 OFFCURVE",
"200 166 OFFCURVE",
"200 185 CURVE SMOOTH",
"200 335 LINE SMOOTH",
"200 354 OFFCURVE",
"213 367 OFFCURVE",
"232 367 CURVE SMOOTH",
"251 367 OFFCURVE",
"264 354 OFFCURVE",
"264 335 CURVE SMOOTH",
"264 185 LINE SMOOTH",
"264 166 OFFCURVE",
"251 153 OFFCURVE",
"232 153 CURVE SMOOTH"
);
}
);
width = 464;
},
{
associatedMasterId = "262880E7-CFE1-4BDA-902E-E24798F3240A";
guideLines = (
{
angle = 180;
position = "{227, 250}";
showMeasurement = 1;
},
{
angle = 120;
position = "{227, 250}";
showMeasurement = 1;
},
{
angle = 60;
position = "{227, 250}";
showMeasurement = 1;
}
);
layerId = "DDD177BB-467D-491E-BE2C-0301FA3F2D98";
name = "{95,100}";
paths = (
{
closed = 1;
nodes = (
"323 -8 OFFCURVE",
"397 58 OFFCURVE",
"397 164 CURVE SMOOTH",
"397 345 LINE SMOOTH",
"397 451 OFFCURVE",
"323 518 OFFCURVE",
"211 518 CURVE SMOOTH",
"99 518 OFFCURVE",
"26 451 OFFCURVE",
"26 345 CURVE SMOOTH",
"26 164 LINE SMOOTH",
"26 58 OFFCURVE",
"99 -8 OFFCURVE",
"211 -8 CURVE SMOOTH"
);
},
{
closed = 1;
nodes = (
"157 82 OFFCURVE",
"120 120 OFFCURVE",
"120 176 CURVE SMOOTH",
"120 334 LINE SMOOTH",
"120 390 OFFCURVE",
"157 428 OFFCURVE",
"211 428 CURVE SMOOTH",
"266 428 OFFCURVE",
"303 390 OFFCURVE",
"303 334 CURVE SMOOTH",
"303 176 LINE SMOOTH",
"303 120 OFFCURVE",
"266 82 OFFCURVE",
"211 82 CURVE SMOOTH"
);
}
);
width = 423;
}
);
leftKerningGroup = o;
rightKerningGroup = o;
unicode = 006F;
},
{
glyphname = r;
lastChange = "2016-11-22 01:19:43 +0000";
layers = (
{
layerId = "262880E7-CFE1-4BDA-902E-E24798F3240A";
paths = (
{
closed = 1;
nodes = (
"94 331 LINE",
"94 419 OFFCURVE",
"147 479 OFFCURVE",
"222 479 CURVE SMOOTH",
"246 479 OFFCURVE",
"260 474 OFFCURVE",
"274 466 CURVE",
"284 489 LINE",
"268 498 OFFCURVE",
"252 504 OFFCURVE",
"224 504 CURVE SMOOTH",
"136 504 OFFCURVE",
"79 438 OFFCURVE",
"79 331 CURVE"
);
},
{
closed = 1;
nodes = (
"94 0 LINE",
"94 500 LINE",
"72 500 LINE",
"72 0 LINE"
);
}
);
width = 300;
},
{
layerId = "4E2227F3-52E4-4048-A8EE-327B486EF0A4";
paths = (
{
closed = 1;
nodes = (
"206 273 LINE",
"206 294 OFFCURVE",
"221 318 OFFCURVE",
"244 327 CURVE SMOOTH",
"270 337 OFFCURVE",
"309 333 OFFCURVE",
"319 325 CURVE",
"349 510 LINE",
"339 519 OFFCURVE",
"322 527 OFFCURVE",
"296 527 CURVE SMOOTH",
"175 527 OFFCURVE",
"175 352 OFFCURVE",
"175 273 CURVE"
);
},
{
closed = 1;
nodes = (
"206 1 LINE",
"206 520 LINE",
"18 520 LINE",
"18 1 LINE"
);
}
);
width = 349;
},
{
associatedMasterId = "262880E7-CFE1-4BDA-902E-E24798F3240A";
layerId = "02ED68AE-2BDF-4CBE-81BE-5A54F9C1FD96";
name = "{95,100}";
paths = (
{
closed = 1;
nodes = (
"143 306 LINE",
"143 364 OFFCURVE",
"179 409 OFFCURVE",
"232 413 CURVE SMOOTH",
"256 417 OFFCURVE",
"281 412 OFFCURVE",
"294 404 CURVE",
"312 498 LINE",
"299 507 OFFCURVE",
"283 514 OFFCURVE",
"255 514 CURVE SMOOTH",
"153 514 OFFCURVE",
"101 420 OFFCURVE",
"101 306 CURVE"
);
},
{
closed = 1;
nodes = (
"143 0 LINE",
"143 509 LINE",
"48 509 LINE",
"48 0 LINE"
);
}
);
width = 321;
}
);
leftKerningGroup = n;
rightKerningGroup = r;
unicode = 0072;
},
{
glyphname = s;
lastChange = "2016-11-22 01:03:44 +0000";
layers = (
{
layerId = "262880E7-CFE1-4BDA-902E-E24798F3240A";
paths = (
{
closed = 1;
nodes = (
"304 -4 OFFCURVE",
"360 43 OFFCURVE",
"360 123 CURVE SMOOTH",
"360 211 OFFCURVE",
"292 231 OFFCURVE",
"207 263 CURVE SMOOTH",
"122 295 OFFCURVE",
"80 317 OFFCURVE",
"80 378 CURVE SMOOTH",
"80 443 OFFCURVE",
"127 483 OFFCURVE",
"206 483 CURVE SMOOTH",
"288 483 OFFCURVE",
"336 441 OFFCURVE",
"336 369 CURVE SMOOTH",
"336 344 LINE",
"358 344 LINE",
"358 369 LINE SMOOTH",
"358 454 OFFCURVE",
"302 504 OFFCURVE",
"207 504 CURVE SMOOTH",
"113 504 OFFCURVE",
"58 456 OFFCURVE",
"58 378 CURVE SMOOTH",
"58 295 OFFCURVE",
"119 273 OFFCURVE",
"202 242 CURVE SMOOTH",
"290 209 OFFCURVE",
"338 189 OFFCURVE",
"338 123 CURVE SMOOTH",
"338 57 OFFCURVE",
"290 17 OFFCURVE",
"209 17 CURVE SMOOTH",
"127 17 OFFCURVE",
"78 57 OFFCURVE",
"78 126 CURVE SMOOTH",
"78 157 LINE",
"56 157 LINE",
"56 126 LINE SMOOTH",
"56 44 OFFCURVE",
"113 -4 OFFCURVE",
"209 -4 CURVE SMOOTH"
);
}
);
width = 416;
},
{
layerId = "4E2227F3-52E4-4048-A8EE-327B486EF0A4";
paths = (
{
closed = 1;
nodes = (
"367 -8 OFFCURVE",
"443 48 OFFCURVE",
"443 137 CURVE SMOOTH",
"443 221 OFFCURVE",
"389 271 OFFCURVE",
"277 304 CURVE SMOOTH",
"226 319 OFFCURVE",
"199 325 OFFCURVE",
"199 344 CURVE SMOOTH",
"199 355 OFFCURVE",
"207 363 OFFCURVE",
"226 363 CURVE SMOOTH",
"246 363 OFFCURVE",
"256 354 OFFCURVE",
"256 337 CURVE SMOOTH",
"256 336 LINE",
"431 336 LINE",
"431 336 LINE SMOOTH",
"431 463 OFFCURVE",
"362 528 OFFCURVE",
"225 528 CURVE SMOOTH",
"86 528 OFFCURVE",
"19 466 OFFCURVE",
"19 368 CURVE SMOOTH",
"19 281 OFFCURVE",
"70 221 OFFCURVE",
"180 195 CURVE SMOOTH",
"231 183 OFFCURVE",
"248 168 OFFCURVE",
"248 155 CURVE SMOOTH",
"248 145 OFFCURVE",
"240 139 OFFCURVE",
"223 139 CURVE SMOOTH",
"202 139 OFFCURVE",
"193 150 OFFCURVE",
"193 165 CURVE SMOOTH",
"193 166 LINE",
"14 166 LINE",
"14 166 LINE",
"14 49 OFFCURVE",
"76 -8 OFFCURVE",
"230 -8 CURVE SMOOTH"
);
}
);
width = 457;
},
{
associatedMasterId = "262880E7-CFE1-4BDA-902E-E24798F3240A";
layerId = "2F89E25A-9421-408A-A71F-A73137EE6AE7";
name = "{95,100}";
paths = (
{
closed = 1;
nodes = (
"327 -6 OFFCURVE",
"388 53 OFFCURVE",
"388 135 CURVE SMOOTH",
"388 229 OFFCURVE",
"309 268 OFFCURVE",
"235 293 CURVE SMOOTH",
"179 312 OFFCURVE",
"124 324 OFFCURVE",
"124 367 CURVE SMOOTH",
"124 399 OFFCURVE",
"153 424 OFFCURVE",
"206 424 CURVE SMOOTH",
"262 424 OFFCURVE",
"293 396 OFFCURVE",
"293 348 CURVE SMOOTH",
"293 341 LINE",
"382 341 LINE",
"382 355 LINE SMOOTH",
"382 458 OFFCURVE",
"319 514 OFFCURVE",
"209 514 CURVE SMOOTH",
"94 514 OFFCURVE",
"33 452 OFFCURVE",
"33 369 CURVE SMOOTH",
"33 263 OFFCURVE",
"131 234 OFFCURVE",
"195 214 CURVE SMOOTH",
"251 197 OFFCURVE",
"291 179 OFFCURVE",
"291 140 CURVE SMOOTH",
"291 107 OFFCURVE",
"261 84 OFFCURVE",
"209 84 CURVE SMOOTH",
"151 84 OFFCURVE",
"120 112 OFFCURVE",
"120 157 CURVE SMOOTH",
"120 161 LINE",
"30 161 LINE",
"30 143 LINE SMOOTH",
"30 46 OFFCURVE",
"91 -6 OFFCURVE",
"205 -6 CURVE SMOOTH"
);
}
);
width = 418;
}
);
leftKerningGroup = s;
rightKerningGroup = s;
unicode = 0073;
},
{
glyphname = t;
lastChange = "2016-11-22 01:02:30 +0000";
layers = (
{
layerId = "262880E7-CFE1-4BDA-902E-E24798F3240A";
paths = (
{
closed = 1;
nodes = (
"225 0 LINE",
"225 21 LINE",
"199 21 LINE SMOOTH",
"124 21 OFFCURVE",
"102 57 OFFCURVE",
"102 153 CURVE SMOOTH",
"102 610 LINE",
"80 610 LINE",
"80 153 LINE SMOOTH",
"80 43 OFFCURVE",
"111 0 OFFCURVE",
"199 0 CURVE SMOOTH"
);
},
{
closed = 1;
nodes = (
"225 479 LINE",
"225 500 LINE",
"12 500 LINE",
"12 479 LINE"
);
}
);
width = 273;
},
{
layerId = "4E2227F3-52E4-4048-A8EE-327B486EF0A4";
paths = (
{
closed = 1;
nodes = (
"299 0 LINE",
"299 156 LINE",
"276 156 LINE",
"247 156 OFFCURVE",
"232 177 OFFCURVE",
"232 206 CURVE",
"232 660 LINE",
"52 660 LINE",
"52 186 LINE",
"52 26 OFFCURVE",
"114 0 OFFCURVE",
"252 0 CURVE SMOOTH"
);
},
{
closed = 1;
nodes = (
"301 380 LINE",
"301 520 LINE",
"0 520 LINE",
"0 380 LINE"
);
}
);
width = 313;
}
);
leftKerningGroup = t;
rightKerningGroup = t;
unicode = 0074;
},
{
glyphname = u;
lastChange = "2016-11-22 01:25:41 +0000";
layers = (
{
layerId = "262880E7-CFE1-4BDA-902E-E24798F3240A";
paths = (
{
closed = 1;
nodes = (
"324 500 LINE",
"324 0 LINE",
"346 0 LINE",
"346 500 LINE"
);
},
{
closed = 1;
nodes = (
"36 500 LINE",
"36 153 LINE SMOOTH",
"36 54 OFFCURVE",
"97 -7 OFFCURVE",
"185 -7 CURVE SMOOTH",
"279 -7 OFFCURVE",
"340 57 OFFCURVE",
"340 157 CURVE",
"324 157 LINE",
"324 70 OFFCURVE",
"270 14 OFFCURVE",
"188 14 CURVE SMOOTH",
"111 14 OFFCURVE",
"58 68 OFFCURVE",
"58 156 CURVE SMOOTH",
"58 500 LINE"
);
}
);
width = 424;
},
{
layerId = "4E2227F3-52E4-4048-A8EE-327B486EF0A4";
paths = (
{
closed = 1;
nodes = (
"260 520 LINE",
"260 0 LINE",
"448 0 LINE",
"448 520 LINE"
);
},
{
closed = 1;
nodes = (
"14 520 LINE",
"14 172 LINE SMOOTH",
"14 61 OFFCURVE",
"49 -8 OFFCURVE",
"154 -8 CURVE SMOOTH",
"197 -8 OFFCURVE",
"298 10 OFFCURVE",
"297 185 CURVE",
"260 185 LINE",
"260 166 OFFCURVE",
"248 153 OFFCURVE",
"230 153 CURVE SMOOTH",
"213 153 OFFCURVE",
"202 166 OFFCURVE",
"202 185 CURVE SMOOTH",
"202 520 LINE"
);
}
);
width = 466;
},
{
associatedMasterId = "262880E7-CFE1-4BDA-902E-E24798F3240A";
layerId = "62D7DD80-CFB5-43C9-877A-95E1F2C64F58";
name = "{95,100}";
paths = (
{
closed = 1;
nodes = (
"296 509 LINE",
"296 0 LINE",
"391 0 LINE",
"391 509 LINE"
);
},
{
closed = 1;
nodes = (
"26 509 LINE",
"26 161 LINE SMOOTH",
"26 57 OFFCURVE",
"81 -7 OFFCURVE",
"182 -7 CURVE SMOOTH",
"261 -7 OFFCURVE",
"322 32 OFFCURVE",
"321 169 CURVE",
"296 169 LINE",
"296 112 OFFCURVE",
"259 75 OFFCURVE",
"207 75 CURVE SMOOTH",
"155 75 OFFCURVE",
"121 111 OFFCURVE",
"121 169 CURVE SMOOTH",
"121 509 LINE"
);
}
);
width = 442;
}
);
leftKerningGroup = u;
unicode = 0075;
},
{
glyphname = v;
lastChange = "2016-11-22 01:02:30 +0000";
layers = (
{
layerId = "262880E7-CFE1-4BDA-902E-E24798F3240A";
paths = (
{
closed = 1;
nodes = (
"203 0 LINE",
"360 500 LINE",
"335 500 LINE",
"192 33 LINE",
"49 500 LINE",
"24 500 LINE",
"181 0 LINE"
);
}
);
width = 392;
},
{
layerId = "4E2227F3-52E4-4048-A8EE-327B486EF0A4";
paths = (
{
closed = 1;
nodes = (
"333 -2 LINE",
"480 518 LINE",
"276 520 LINE",
"243 236 LINE",
"210 520 LINE",
"6 520 LINE",
"153 0 LINE"
);
}
);
width = 488;
}
);
leftKerningGroup = v;
rightKerningGroup = v;
unicode = 0076;
},
{
glyphname = w;
lastChange = "2016-11-22 01:02:30 +0000";
layers = (
{
layerId = "262880E7-CFE1-4BDA-902E-E24798F3240A";
paths = (
{
closed = 1;
nodes = (
"179 0 LINE",
"298 461 LINE",
"418 0 LINE",
"440 0 LINE",
"572 500 LINE",
"550 500 LINE",
"430 27 LINE",
"310 500 LINE",
"289 500 LINE",
"169 27 LINE",
"49 500 LINE",
"24 500 LINE",
"157 0 LINE"
);
}
);
width = 604;
},
{
layerId = "4E2227F3-52E4-4048-A8EE-327B486EF0A4";
paths = (
{
closed = 1;
nodes = (
"289 -2 LINE",
"326 211 LINE",
"363 0 LINE",
"527 -2 LINE",
"655 518 LINE",
"469 520 LINE",
"435 236 LINE",
"397 520 LINE",
"267 520 LINE",
"229 236 LINE",
"195 520 LINE",
"6 520 LINE",
"134 0 LINE"
);
}
);
width = 663;
},
{
associatedMasterId = "262880E7-CFE1-4BDA-902E-E24798F3240A";
layerId = "E3597918-BEF7-4A52-8D4A-AF02D251D940";
name = "{95,100}";
paths = (
{
closed = 1;
nodes = (
"232 -1 LINE",
"307 363 LINE",
"387 0 LINE",
"475 -1 LINE",
"599 508 LINE",
"507 509 LINE",
"433 137 LINE",
"347 509 LINE",
"262 509 LINE",
"188 137 LINE",
"108 509 LINE",
"11 509 LINE",
"144 0 LINE"
);
}
);
width = 622;
}
);
leftKerningGroup = v;
rightKerningGroup = v;
unicode = 0077;
},
{
glyphname = x;
lastChange = "2016-11-22 01:02:30 +0000";
layers = (
{
layerId = "262880E7-CFE1-4BDA-902E-E24798F3240A";
paths = (
{
closed = 1;
nodes = (
"49 0 LINE",
"196 233 LINE",
"342 0 LINE",
"367 0 LINE",
"207 250 LINE",
"367 500 LINE",
"342 500 LINE",
"196 267 LINE",
"49 500 LINE",
"24 500 LINE",
"185 250 LINE",
"24 0 LINE"
);
}
);
width = 399;
},
{
layerId = "4E2227F3-52E4-4048-A8EE-327B486EF0A4";
paths = (
{
closed = 1;
nodes = (
"200 0 LINE",
"239 105 LINE",
"278 0 LINE",
"472 0 LINE",
"334 260 LINE",
"472 520 LINE",
"278 520 LINE",
"239 420 LINE",
"200 520 LINE",
"6 520 LINE",
"144 260 LINE",
"6 0 LINE"
);
}
);
width = 480;
}
);
leftKerningGroup = x;
unicode = 0078;
},
{
glyphname = y;
lastChange = "2016-11-22 01:02:30 +0000";
layers = (
{
layerId = "262880E7-CFE1-4BDA-902E-E24798F3240A";
paths = (
{
closed = 1;
nodes = (
"123 -200 OFFCURVE",
"147 -188 OFFCURVE",
"187 -62 CURVE SMOOTH",
"364 500 LINE",
"341 500 LINE",
"197 27 LINE",
"46 500 LINE",
"24 500 LINE",
"186 0 LINE",
"142 -150 OFFCURVE",
"130 -181 OFFCURVE",
"59 -181 CURVE",
"59 -200 LINE"
);
}
);
width = 396;
},
{
layerId = "4E2227F3-52E4-4048-A8EE-327B486EF0A4";
paths = (
{
closed = 1;
nodes = (
"259 -198 OFFCURVE",
"291 -143 OFFCURVE",
"333 -2 CURVE",
"469 518 LINE",
"267 520 LINE",
"238 252 LINE",
"207 520 LINE",
"6 520 LINE",
"140 0 LINE",
"140 -21 OFFCURVE",
"141 -54 OFFCURVE",
"58 -52 CURVE",
"58 -198 LINE"
);
}
);
width = 477;
}
);
leftKerningGroup = v;
rightKerningGroup = v;
unicode = 0079;
},
{
glyphname = z;
lastChange = "2016-11-22 01:02:30 +0000";
layers = (
{
layerId = "262880E7-CFE1-4BDA-902E-E24798F3240A";
paths = (
{
closed = 1;
nodes = (
"348 0 LINE",
"348 21 LINE",
"56 21 LINE",
"352 479 LINE",
"352 500 LINE",
"36 500 LINE",
"36 479 LINE",
"328 479 LINE",
"32 21 LINE",
"32 0 LINE"
);
}
);
width = 392;
},
{
layerId = "4E2227F3-52E4-4048-A8EE-327B486EF0A4";
paths = (
{
closed = 1;
nodes = (
"388 0 LINE",
"388 170 LINE",
"222 170 LINE",
"380 350 LINE",
"380 520 LINE",
"15 520 LINE",
"15 350 LINE",
"156 350 LINE",
"8 170 LINE",
"8 0 LINE"
);
}
);
width = 398;
}
);
leftKerningGroup = z;
unicode = 007A;
},
{
glyphname = a.alt;
lastChange = "2016-11-17 13:15:35 +0000";
layers = (
{
components = (
{
name = b.bowl;
transform = "{-1, 0, 0, 1, 369, 0}";
}
);
layerId = "262880E7-CFE1-4BDA-902E-E24798F3240A";
paths = (
{
closed = 1;
nodes = (
"373 0 LINE",
"373 500 LINE",
"351 500 LINE",
"351 0 LINE"
);
}
);
width = 473;
},
{
components = (
{
name = b.bowl;
transform = "{-1, 0, 0, 1, 299, 0}";
}
);
layerId = "4E2227F3-52E4-4048-A8EE-327B486EF0A4";
paths = (
{
closed = 1;
nodes = (
"450 0 LINE",
"450 520 LINE",
"262 520 LINE",
"262 0 LINE"
);
}
);
width = 468;
},
{
associatedMasterId = "262880E7-CFE1-4BDA-902E-E24798F3240A";
components = (
{
name = b.bowl;
transform = "{-1, 0, 0, 1, 353, 0}";
}
);
layerId = "B3FF5359-FBFA-47B2-BD2A-5A0E8F8E4EE4";
name = "{95,100}";
paths = (
{
closed = 1;
nodes = (
"422 0 LINE",
"422 509 LINE",
"328 509 LINE",
"328 0 LINE"
);
}
);
width = 471;
}
);
leftKerningGroup = a;
rightKerningGroup = a;
},
{
export = 0;
glyphname = b.bowl;
lastChange = "2016-11-17 13:24:55 +0000";
layers = (
{
layerId = "262880E7-CFE1-4BDA-902E-E24798F3240A";
paths = (
{
closed = 1;
nodes = (
"250 -8 OFFCURVE",
"310 55 OFFCURVE",
"310 158 CURVE SMOOTH",
"310 342 LINE SMOOTH",
"310 445 OFFCURVE",
"252 508 OFFCURVE",
"156 508 CURVE SMOOTH",
"58 508 OFFCURVE",
"0 441 OFFCURVE",
"0 342 CURVE SMOOTH",
"0 158 LINE SMOOTH",
"0 53 OFFCURVE",
"63 -8 OFFCURVE",
"154 -8 CURVE SMOOTH"
);
},
{
closed = 1;
nodes = (
"71 13 OFFCURVE",
"18 67 OFFCURVE",
"18 155 CURVE SMOOTH",
"18 345 LINE SMOOTH",
"18 433 OFFCURVE",
"71 487 OFFCURVE",
"154 487 CURVE SMOOTH",
"237 487 OFFCURVE",
"288 433 OFFCURVE",
"288 345 CURVE SMOOTH",
"288 155 LINE SMOOTH",
"288 67 OFFCURVE",
"237 13 OFFCURVE",
"154 13 CURVE SMOOTH"
);
}
);
width = 310;
},
{
layerId = "4E2227F3-52E4-4048-A8EE-327B486EF0A4";
paths = (
{
closed = 1;
nodes = (
"239 -8 OFFCURVE",
"283 66 OFFCURVE",
"283 177 CURVE SMOOTH",
"283 343 LINE SMOOTH",
"283 454 OFFCURVE",
"239 528 OFFCURVE",
"134 528 CURVE SMOOTH",
"91 528 OFFCURVE",
"0 521 OFFCURVE",
"0 323 CURVE SMOOTH",
"0 197 LINE",
"-4 -1 OFFCURVE",
"91 -8 OFFCURVE",
"134 -8 CURVE SMOOTH"
);
},
{
closed = 1;
nodes = (
"49 164 OFFCURVE",
"37 177 OFFCURVE",
"37 197 CURVE SMOOTH",
"37 323 LINE SMOOTH",
"37 343 OFFCURVE",
"49 356 OFFCURVE",
"66 356 CURVE SMOOTH",
"83 356 OFFCURVE",
"95 343 OFFCURVE",
"95 323 CURVE SMOOTH",
"95 197 LINE SMOOTH",
"95 177 OFFCURVE",
"83 164 OFFCURVE",
"66 164 CURVE SMOOTH"
);
}
);
width = 283;
},
{
associatedMasterId = "262880E7-CFE1-4BDA-902E-E24798F3240A";
layerId = "7075B5C3-9D49-4D6E-BF1C-9E429270E949";
name = "{95,100}";
paths = (
{
closed = 1;
nodes = (
"238 -8 OFFCURVE",
"301 60 OFFCURVE",
"301 166 CURVE SMOOTH",
"301 342 LINE SMOOTH",
"301 449 OFFCURVE",
"239 517 OFFCURVE",
"139 517 CURVE SMOOTH",
"65 517 OFFCURVE",
"0 480 OFFCURVE",
"0 342 CURVE SMOOTH",
"0 167 LINE SMOOTH",
"0 25 OFFCURVE",
"68 -8 OFFCURVE",
"138 -8 CURVE SMOOTH"
);
},
{
closed = 1;
nodes = (
"64 79 OFFCURVE",
"29 115 OFFCURVE",
"29 173 CURVE SMOOTH",
"29 335 LINE SMOOTH",
"29 394 OFFCURVE",
"64 430 OFFCURVE",
"119 430 CURVE SMOOTH",
"173 430 OFFCURVE",
"207 394 OFFCURVE",
"207 335 CURVE SMOOTH",
"207 173 LINE SMOOTH",
"207 115 OFFCURVE",
"173 79 OFFCURVE",
"119 79 CURVE SMOOTH"
);
}
);
width = 301;
}
);
},
{
export = 0;
glyphname = n.curve;
lastChange = "2016-11-22 01:13:12 +0000";
layers = (
{
layerId = "262880E7-CFE1-4BDA-902E-E24798F3240A";
paths = (
{
closed = 1;
nodes = (
"305 0 LINE",
"305 347 LINE SMOOTH",
"305 446 OFFCURVE",
"244 507 OFFCURVE",
"156 507 CURVE SMOOTH",
"62 507 OFFCURVE",
"0 448 OFFCURVE",
"0 346 CURVE",
"17 346 LINE",
"17 433 OFFCURVE",
"71 486 OFFCURVE",
"153 486 CURVE SMOOTH",
"230 486 OFFCURVE",
"283 432 OFFCURVE",
"283 344 CURVE SMOOTH",
"283 0 LINE"
);
}
);
width = 305;
},
{
layerId = "4E2227F3-52E4-4048-A8EE-327B486EF0A4";
paths = (
{
closed = 1;
nodes = (
"283 0 LINE",
"283 348 LINE SMOOTH",
"283 459 OFFCURVE",
"239 528 OFFCURVE",
"134 528 CURVE SMOOTH",
"91 528 OFFCURVE",
"-1 520 OFFCURVE",
"0 335 CURVE",
"37 335 LINE",
"37 354 OFFCURVE",
"49 367 OFFCURVE",
"67 367 CURVE SMOOTH",
"84 367 OFFCURVE",
"95 354 OFFCURVE",
"95 335 CURVE SMOOTH",
"95 0 LINE"
);
}
);
width = 283;
},
{
associatedMasterId = "262880E7-CFE1-4BDA-902E-E24798F3240A";
layerId = "A2DD2087-447C-4684-8CEE-3BC4A0417315";
name = "{95,100}";
paths = (
{
closed = 1;
nodes = (
"295 0 LINE",
"295 347 LINE SMOOTH",
"295 452 OFFCURVE",
"242 516 OFFCURVE",
"146 516 CURVE SMOOTH",
"75 516 OFFCURVE",
"0 479 OFFCURVE",
"0 341 CURVE",
"26 341 LINE",
"26 399 OFFCURVE",
"61 434 OFFCURVE",
"115 434 CURVE SMOOTH",
"166 434 OFFCURVE",
"201 398 OFFCURVE",
"201 340 CURVE SMOOTH",
"201 0 LINE"
);
}
);
width = 295;
}
);
},
{
glyphname = zero;
lastChange = "2016-11-22 01:02:29 +0000";
layers = (
{
layerId = "262880E7-CFE1-4BDA-902E-E24798F3240A";
paths = (
{
closed = 1;
nodes = (
"330 -9 OFFCURVE",
"399 56 OFFCURVE",
"399 154 CURVE SMOOTH",
"399 546 LINE SMOOTH",
"399 644 OFFCURVE",
"330 709 OFFCURVE",
"232 709 CURVE SMOOTH",
"134 709 OFFCURVE",
"64 644 OFFCURVE",
"64 546 CURVE SMOOTH",
"64 154 LINE SMOOTH",
"64 56 OFFCURVE",
"134 -9 OFFCURVE",
"232 -9 CURVE SMOOTH"
);
},
{
closed = 1;
nodes = (
"147 12 OFFCURVE",
"86 68 OFFCURVE",
"86 152 CURVE SMOOTH",
"86 548 LINE SMOOTH",
"86 632 OFFCURVE",
"147 688 OFFCURVE",
"232 688 CURVE SMOOTH",
"317 688 OFFCURVE",
"377 632 OFFCURVE",
"377 548 CURVE SMOOTH",
"377 152 LINE SMOOTH",
"377 68 OFFCURVE",
"317 12 OFFCURVE",
"232 12 CURVE SMOOTH"
);
}
);
width = 463;
},
{
layerId = "4E2227F3-52E4-4048-A8EE-327B486EF0A4";
paths = (
{
closed = 1;
nodes = (
"376 -8 OFFCURVE",
"466 78 OFFCURVE",
"466 208 CURVE SMOOTH",
"466 492 LINE SMOOTH",
"466 622 OFFCURVE",
"376 708 OFFCURVE",
"241 708 CURVE SMOOTH",
"106 708 OFFCURVE",
"16 622 OFFCURVE",
"16 492 CURVE SMOOTH",
"16 208 LINE SMOOTH",
"16 78 OFFCURVE",
"106 -8 OFFCURVE",
"241 -8 CURVE SMOOTH"
);
},
{
closed = 1;
nodes = (
"219 162 OFFCURVE",
"204 180 OFFCURVE",
"204 208 CURVE SMOOTH",
"204 492 LINE SMOOTH",
"204 520 OFFCURVE",
"219 538 OFFCURVE",
"241 538 CURVE SMOOTH",
"263 538 OFFCURVE",
"278 520 OFFCURVE",
"278 492 CURVE SMOOTH",
"278 208 LINE SMOOTH",
"278 180 OFFCURVE",
"263 162 OFFCURVE",
"241 162 CURVE SMOOTH"
);
}
);
width = 482;
}
);
unicode = 0030;
},
{
glyphname = one;
lastChange = "2016-11-22 01:02:29 +0000";
layers = (
{
layerId = "262880E7-CFE1-4BDA-902E-E24798F3240A";
paths = (
{
closed = 1;
nodes = (
"183 0 LINE",
"183 700 LINE",
"161 700 LINE",
"161 0 LINE"
);
},
{
closed = 1;
nodes = (
"72 637 LINE",
"161 669 LINE",
"161 700 LINE",
"72 658 LINE"
);
}
);
width = 263;
},
{
layerId = "4E2227F3-52E4-4048-A8EE-327B486EF0A4";
paths = (
{
closed = 1;
nodes = (
"258 0 LINE",
"258 700 LINE",
"70 700 LINE",
"70 0 LINE"
);
},
{
closed = 1;
nodes = (
"18 529 LINE",
"70 529 LINE",
"70 700 LINE",
"18 673 LINE"
);
}
);
width = 278;
}
);
unicode = 0031;
},
{
glyphname = two;
lastChange = "2016-11-22 01:02:29 +0000";
layers = (
{
layerId = "262880E7-CFE1-4BDA-902E-E24798F3240A";
paths = (
{
closed = 1;
nodes = (
"397 0 LINE",
"397 21 LINE",
"82 21 LINE",
"296 323 LINE SMOOTH",
"358 410 OFFCURVE",
"389 485 OFFCURVE",
"389 544 CURVE SMOOTH",
"389 642 OFFCURVE",
"321 708 OFFCURVE",
"220 708 CURVE SMOOTH",
"122 708 OFFCURVE",
"56 642 OFFCURVE",
"56 544 CURVE SMOOTH",
"56 500 LINE",
"79 500 LINE",
"79 544 LINE",
"78 630 OFFCURVE",
"134 687 OFFCURVE",
"220 687 CURVE SMOOTH",
"308 687 OFFCURVE",
"367 630 OFFCURVE",
"367 544 CURVE SMOOTH",
"367 490 OFFCURVE",
"337 420 OFFCURVE",
"277 335 CURVE SMOOTH",
"56 21 LINE",
"56 0 LINE"
);
}
);
width = 437;
},
{
layerId = "4E2227F3-52E4-4048-A8EE-327B486EF0A4";
paths = (
{
closed = 1;
nodes = (
"469 0 LINE",
"469 170 LINE",
"275 170 LINE",
"404 311 LINE",
"456 382 OFFCURVE",
"463 425 OFFCURVE",
"463 520 CURVE SMOOTH",
"463 639 OFFCURVE",
"369 708 OFFCURVE",
"238 708 CURVE SMOOTH",
"111 708 OFFCURVE",
"21 640 OFFCURVE",
"14 520 CURVE",
"14 455 LINE",
"204 455 LINE",
"204 503 LINE",
"204 524 OFFCURVE",
"218 538 OFFCURVE",
"239 538 CURVE SMOOTH",
"259 538 OFFCURVE",
"273 524 OFFCURVE",
"273 503 CURVE SMOOTH",
"273 457 OFFCURVE",
"258 423 OFFCURVE",
"204 361 CURVE",
"18 170 LINE",
"18 0 LINE"
);
}
);
width = 479;
},
{
associatedMasterId = "262880E7-CFE1-4BDA-902E-E24798F3240A";
layerId = "F78DC261-0EB4-494E-AC31-41D8EA41B416";
name = "{95,100}";
paths = (
{
closed = 1;
nodes = (
"421 0 LINE",
"421 86 LINE",
"158 86 LINE",
"335 318 LINE SMOOTH",
"393 398 OFFCURVE",
"413 459 OFFCURVE",
"413 534 CURVE SMOOTH",
"413 646 OFFCURVE",
"341 708 OFFCURVE",
"220 708 CURVE SMOOTH",
"109 708 OFFCURVE",
"33 638 OFFCURVE",
"30 525 CURVE SMOOTH",
"30 480 LINE",
"126 480 LINE",
"126 513 LINE",
"125 576 OFFCURVE",
"163 618 OFFCURVE",
"220 618 CURVE SMOOTH",
"285 618 OFFCURVE",
"318 584 OFFCURVE",
"318 522 CURVE SMOOTH",
"318 472 OFFCURVE",
"295 421 OFFCURVE",
"237 346 CURVE SMOOTH",
"32 86 LINE",
"32 0 LINE"
);
}
);
width = 442;
}
);
unicode = 0032;
},
{
glyphname = three;
lastChange = "2016-11-22 01:02:29 +0000";
layers = (
{
layerId = "262880E7-CFE1-4BDA-902E-E24798F3240A";
paths = (
{
closed = 1;
nodes = (
"325 -8 OFFCURVE",
"391 58 OFFCURVE",
"391 158 CURVE SMOOTH",
"391 262 LINE SMOOTH",
"391 362 OFFCURVE",
"328 431 OFFCURVE",
"218 428 CURVE",
"394 679 LINE",
"394 700 LINE",
"61 700 LINE",
"61 679 LINE",
"368 679 LINE",
"182 416 LINE",
"193 404 LINE",
"203 406 OFFCURVE",
"213 407 OFFCURVE",
"224 407 CURVE SMOOTH",
"311 407 OFFCURVE",
"369 350 OFFCURVE",
"369 265 CURVE SMOOTH",
"369 155 LINE SMOOTH",
"369 70 OFFCURVE",
"311 13 OFFCURVE",
"224 13 CURVE SMOOTH",
"137 13 OFFCURVE",
"78 70 OFFCURVE",
"78 155 CURVE SMOOTH",
"78 201 LINE",
"56 201 LINE",
"56 158 LINE SMOOTH",
"56 58 OFFCURVE",
"123 -8 OFFCURVE",
"224 -8 CURVE SMOOTH"
);
}
);
width = 458;
},
{
layerId = "4E2227F3-52E4-4048-A8EE-327B486EF0A4";
paths = (
{
closed = 1;
nodes = (
"366 -7 OFFCURVE",
"454 59 OFFCURVE",
"454 172 CURVE SMOOTH",
"454 276 LINE SMOOTH",
"454 349 OFFCURVE",
"411 427 OFFCURVE",
"347 433 CURVE",
"454 530 LINE",
"454 700 LINE",
"47 700 LINE",
"47 530 LINE",
"228 530 LINE",
"91 417 LINE",
"192 312 LINE",
"208 333 OFFCURVE",
"218 340 OFFCURVE",
"234 340 CURVE SMOOTH",
"253 340 OFFCURVE",
"266 327 OFFCURVE",
"266 308 CURVE SMOOTH",
"266 185 LINE SMOOTH",
"266 166 OFFCURVE",
"253 153 OFFCURVE",
"234 153 CURVE SMOOTH",
"215 153 OFFCURVE",
"202 166 OFFCURVE",
"202 185 CURVE SMOOTH",
"202 232 LINE",
"14 232 LINE",
"14 172 LINE SMOOTH",
"14 59 OFFCURVE",
"102 -7 OFFCURVE",
"234 -7 CURVE SMOOTH"
);
}
);
width = 470;
}
);
unicode = 0033;
},
{
glyphname = four;
lastChange = "2016-11-22 01:02:29 +0000";
layers = (
{
layerId = "262880E7-CFE1-4BDA-902E-E24798F3240A";
paths = (
{
closed = 1;
nodes = (
"320 222 LINE",
"320 -7 LINE",
"342 -7 LINE",
"342 415 LINE",
"320 415 LINE"
);
},
{
closed = 1;
nodes = (
"55 222 LINE",
"269 700 LINE",
"245 700 LINE",
"32 222 LINE",
"32 202 LINE",
"395 202 LINE",
"395 222 LINE"
);
}
);
width = 427;
},
{
layerId = "4E2227F3-52E4-4048-A8EE-327B486EF0A4";
paths = (
{
closed = 1;
nodes = (
"277 337 LINE",
"277 0 LINE",
"465 0 LINE",
"465 480 LINE",
"307 480 LINE"
);
},
{
closed = 1;
nodes = (
"226 337 LINE",
"344 700 LINE",
"147 700 LINE",
"8 302 LINE",
"8 167 LINE",
"519 167 LINE",
"519 337 LINE"
);
}
);
width = 527;
}
);
unicode = 0034;
},
{
glyphname = five;
lastChange = "2016-11-18 01:44:20 +0000";
layers = (
{
layerId = "262880E7-CFE1-4BDA-902E-E24798F3240A";
paths = (
{
closed = 1;
nodes = (
"318 -9 OFFCURVE",
"382 57 OFFCURVE",
"382 157 CURVE SMOOTH",
"382 262 LINE SMOOTH",
"382 362 OFFCURVE",
"318 428 OFFCURVE",
"222 428 CURVE SMOOTH",
"138 428 OFFCURVE",
"77 381 OFFCURVE",
"77 311 CURVE",
"77 307 LINE",
"96 307 LINE",
"96 311 LINE SMOOTH",
"96 369 OFFCURVE",
"151 407 OFFCURVE",
"222 407 CURVE SMOOTH",
"305 407 OFFCURVE",
"360 350 OFFCURVE",
"360 265 CURVE SMOOTH",
"360 154 LINE SMOOTH",
"360 69 OFFCURVE",
"305 12 OFFCURVE",
"222 12 CURVE SMOOTH",
"140 12 OFFCURVE",
"85 69 OFFCURVE",
"85 154 CURVE SMOOTH",
"85 158 LINE",
"63 158 LINE",
"63 157 LINE SMOOTH",
"63 57 OFFCURVE",
"127 -9 OFFCURVE",
"222 -9 CURVE SMOOTH"
);
},
{
closed = 1;
nodes = (
"96 310 LINE",
"98 679 LINE",
"379 679 LINE",
"379 700 LINE",
"76 700 LINE",
"77 310 LINE"
);
}
);
width = 429;
},
{
layerId = "4E2227F3-52E4-4048-A8EE-327B486EF0A4";
paths = (
{
closed = 1;
nodes = (
"364 -8 OFFCURVE",
"452 58 OFFCURVE",
"452 171 CURVE SMOOTH",
"452 260 LINE SMOOTH",
"452 374 OFFCURVE",
"390 444 OFFCURVE",
"283 444 CURVE SMOOTH",
"176 444 OFFCURVE",
"122 374 OFFCURVE",
"122 260 CURVE SMOOTH",
"122 256 LINE",
"200 256 LINE",
"200 257 LINE SMOOTH",
"200 272 OFFCURVE",
"213 282 OFFCURVE",
"232 282 CURVE SMOOTH",
"251 282 OFFCURVE",
"264 269 OFFCURVE",
"264 250 CURVE SMOOTH",
"264 184 LINE SMOOTH",
"264 165 OFFCURVE",
"251 152 OFFCURVE",
"232 152 CURVE SMOOTH",
"213 152 OFFCURVE",
"200 165 OFFCURVE",
"200 184 CURVE SMOOTH",
"200 185 LINE",
"12 185 LINE",
"12 171 LINE SMOOTH",
"12 58 OFFCURVE",
"98 -8 OFFCURVE",
"232 -8 CURVE SMOOTH"
);
},
{
closed = 1;
nodes = (
"200 254 LINE",
"200 530 LINE",
"450 530 LINE",
"450 700 LINE",
"12 700 LINE",
"12 254 LINE"
);
}
);
width = 464;
}
);
unicode = 0035;
},
{
glyphname = six;
lastChange = "2016-11-22 01:02:29 +0000";
layers = (
{
layerId = "262880E7-CFE1-4BDA-902E-E24798F3240A";
paths = (
{
closed = 1;
nodes = (
"343 -8 OFFCURVE",
"409 58 OFFCURVE",
"409 158 CURVE SMOOTH",
"409 262 LINE SMOOTH",
"409 362 OFFCURVE",
"343 428 OFFCURVE",
"241 428 CURVE SMOOTH",
"171 428 OFFCURVE",
"117 395 OFFCURVE",
"91 340 CURVE",
"94 340 LINE",
"94 545 LINE SMOOTH",
"94 630 OFFCURVE",
"153 687 OFFCURVE",
"241 687 CURVE SMOOTH",
"329 687 OFFCURVE",
"387 630 OFFCURVE",
"387 545 CURVE SMOOTH",
"387 500 LINE",
"409 500 LINE",
"409 542 LINE SMOOTH",
"409 642 OFFCURVE",
"343 708 OFFCURVE",
"241 708 CURVE SMOOTH",
"139 708 OFFCURVE",
"72 642 OFFCURVE",
"72 542 CURVE SMOOTH",
"72 158 LINE SMOOTH",
"72 58 OFFCURVE",
"139 -8 OFFCURVE",
"241 -8 CURVE SMOOTH"
);
},
{
closed = 1;
nodes = (
"153 13 OFFCURVE",
"94 70 OFFCURVE",
"94 155 CURVE SMOOTH",
"94 265 LINE SMOOTH",
"94 350 OFFCURVE",
"153 407 OFFCURVE",
"241 407 CURVE SMOOTH",
"329 407 OFFCURVE",
"387 350 OFFCURVE",
"387 265 CURVE SMOOTH",
"387 155 LINE SMOOTH",
"387 70 OFFCURVE",
"329 13 OFFCURVE",
"241 13 CURVE SMOOTH"
);
}
);
width = 465;
},
{
layerId = "4E2227F3-52E4-4048-A8EE-327B486EF0A4";
paths = (
{
closed = 1;
nodes = (
"370 -8 OFFCURVE",
"458 58 OFFCURVE",
"458 171 CURVE SMOOTH",
"458 260 LINE SMOOTH",
"458 390 OFFCURVE",
"369 444 OFFCURVE",
"278 444 CURVE SMOOTH",
"179 444 OFFCURVE",
"157 381 OFFCURVE",
"157 367 CURVE",
"206 367 LINE",
"206 511 LINE SMOOTH",
"206 530 OFFCURVE",
"219 543 OFFCURVE",
"238 543 CURVE SMOOTH",
"257 543 OFFCURVE",
"270 530 OFFCURVE",
"270 511 CURVE SMOOTH",
"270 470 LINE",
"458 470 LINE",
"458 524 LINE SMOOTH",
"458 638 OFFCURVE",
"370 708 OFFCURVE",
"238 708 CURVE SMOOTH",
"106 708 OFFCURVE",
"18 638 OFFCURVE",
"18 524 CURVE SMOOTH",
"18 171 LINE SMOOTH",
"18 58 OFFCURVE",
"106 -8 OFFCURVE",
"238 -8 CURVE SMOOTH"
);
},
{
closed = 1;
nodes = (
"219 152 OFFCURVE",
"206 165 OFFCURVE",
"206 184 CURVE SMOOTH",
"206 252 LINE SMOOTH",
"206 271 OFFCURVE",
"219 284 OFFCURVE",
"238 284 CURVE SMOOTH",
"257 284 OFFCURVE",
"270 271 OFFCURVE",
"270 252 CURVE SMOOTH",
"270 184 LINE SMOOTH",
"270 165 OFFCURVE",
"257 152 OFFCURVE",
"238 152 CURVE SMOOTH"
);
}
);
width = 472;
}
);
unicode = 0036;
},
{
glyphname = seven;
lastChange = "2016-11-22 01:02:29 +0000";
layers = (
{
layerId = "262880E7-CFE1-4BDA-902E-E24798F3240A";
paths = (
{
closed = 1;
nodes = (
"137 0 LINE",
"365 679 LINE",
"365 700 LINE",
"24 700 LINE",
"24 679 LINE",
"341 679 LINE",
"112 0 LINE"
);
}
);
width = 389;
},
{
layerId = "4E2227F3-52E4-4048-A8EE-327B486EF0A4";
paths = (
{
closed = 1;
nodes = (
"237 0 LINE",
"416 530 LINE",
"416 700 LINE",
"6 700 LINE",
"6 530 LINE",
"218 530 LINE",
"41 0 LINE"
);
}
);
width = 422;
}
);
unicode = 0037;
},
{
glyphname = eight;
lastChange = "2016-11-22 01:02:29 +0000";
layers = (
{
layerId = "262880E7-CFE1-4BDA-902E-E24798F3240A";
paths = (
{
closed = 1;
nodes = (
"337 -18 OFFCURVE",
"404 54 OFFCURVE",
"404 161 CURVE SMOOTH",
"404 215 LINE SMOOTH",
"404 322 OFFCURVE",
"337 394 OFFCURVE",
"235 394 CURVE SMOOTH",
"133 394 OFFCURVE",
"64 322 OFFCURVE",
"64 215 CURVE SMOOTH",
"64 161 LINE SMOOTH",
"64 54 OFFCURVE",
"133 -18 OFFCURVE",
"235 -18 CURVE SMOOTH"
);
},
{
closed = 1;
nodes = (
"146 2 OFFCURVE",
"86 66 OFFCURVE",
"86 161 CURVE SMOOTH",
"86 215 LINE SMOOTH",
"86 311 OFFCURVE",
"146 375 OFFCURVE",
"235 375 CURVE SMOOTH",
"324 375 OFFCURVE",
"382 311 OFFCURVE",
"382 215 CURVE SMOOTH",
"382 161 LINE SMOOTH",
"382 66 OFFCURVE",
"324 2 OFFCURVE",
"235 2 CURVE SMOOTH"
);
},
{
closed = 1;
nodes = (
"337 375 OFFCURVE",
"402 439 OFFCURVE",
"402 534 CURVE SMOOTH",
"402 549 LINE SMOOTH",
"402 644 OFFCURVE",
"337 708 OFFCURVE",
"235 708 CURVE SMOOTH",
"133 708 OFFCURVE",
"66 644 OFFCURVE",
"66 549 CURVE SMOOTH",
"66 534 LINE SMOOTH",
"66 439 OFFCURVE",
"133 375 OFFCURVE",
"235 375 CURVE SMOOTH"
);
},
{
closed = 1;
nodes = (
"146 395 OFFCURVE",
"88 451 OFFCURVE",
"88 534 CURVE SMOOTH",
"88 549 LINE SMOOTH",
"88 633 OFFCURVE",
"146 689 OFFCURVE",
"235 689 CURVE SMOOTH",
"324 689 OFFCURVE",
"380 633 OFFCURVE",
"380 549 CURVE SMOOTH",
"380 534 LINE SMOOTH",
"380 451 OFFCURVE",
"324 395 OFFCURVE",
"235 395 CURVE SMOOTH"
);
}
);
width = 468;
},
{
layerId = "4E2227F3-52E4-4048-A8EE-327B486EF0A4";
paths = (
{
closed = 1;
nodes = (
"395 -8 OFFCURVE",
"484 69 OFFCURVE",
"484 194 CURVE SMOOTH",
"484 241 LINE SMOOTH",
"484 427 OFFCURVE",
"290 403 OFFCURVE",
"250 403 CURVE SMOOTH",
"210 403 OFFCURVE",
"16 427 OFFCURVE",
"16 241 CURVE SMOOTH",
"16 195 LINE SMOOTH",
"16 69 OFFCURVE",
"105 -8 OFFCURVE",
"250 -8 CURVE SMOOTH"
);
},
{
closed = 1;
nodes = (
"221 152 OFFCURVE",
"204 171 OFFCURVE",
"204 203 CURVE SMOOTH",
"204 237 LINE SMOOTH",
"204 269 OFFCURVE",
"221 288 OFFCURVE",
"250 288 CURVE",
"279 288 OFFCURVE",
"296 269 OFFCURVE",
"296 237 CURVE SMOOTH",
"296 203 LINE SMOOTH",
"296 171 OFFCURVE",
"279 152 OFFCURVE",
"250 152 CURVE SMOOTH"
);
},
{
closed = 1;
nodes = (
"355 294 OFFCURVE",
"484 339 OFFCURVE",
"484 486 CURVE SMOOTH",
"484 525 LINE SMOOTH",
"484 650 OFFCURVE",
"396 708 OFFCURVE",
"250 708 CURVE SMOOTH",
"105 708 OFFCURVE",
"16 651 OFFCURVE",
"16 525 CURVE SMOOTH",
"16 487 LINE SMOOTH",
"16 339 OFFCURVE",
"135 294 OFFCURVE",
"250 294 CURVE SMOOTH"
);
},
{
closed = 1;
nodes = (
"221 422 OFFCURVE",
"204 441 OFFCURVE",
"204 473 CURVE SMOOTH",
"204 497 LINE SMOOTH",
"204 529 OFFCURVE",
"221 548 OFFCURVE",
"250 548 CURVE SMOOTH",
"279 548 OFFCURVE",
"296 529 OFFCURVE",
"296 497 CURVE SMOOTH",
"296 473 LINE SMOOTH",
"296 441 OFFCURVE",
"279 422 OFFCURVE",
"250 422 CURVE SMOOTH"
);
}
);
width = 500;
},
{
associatedMasterId = "262880E7-CFE1-4BDA-902E-E24798F3240A";
layerId = "B41EB33A-408D-4C01-B8DA-ABE53E8149E1";
name = "{95,100}";
paths = (
{
closed = 1;
nodes = (
"353 -14 OFFCURVE",
"430 61 OFFCURVE",
"430 175 CURVE SMOOTH",
"430 226 LINE SMOOTH",
"430 368 OFFCURVE",
"307 398 OFFCURVE",
"233 398 CURVE SMOOTH",
"158 398 OFFCURVE",
"34 368 OFFCURVE",
"34 226 CURVE SMOOTH",
"34 176 LINE SMOOTH",
"34 61 OFFCURVE",
"112 -14 OFFCURVE",
"233 -14 CURVE SMOOTH"
);
},
{
closed = 1;
nodes = (
"170 76 OFFCURVE",
"128 121 OFFCURVE",
"128 188 CURVE SMOOTH",
"128 225 LINE SMOOTH",
"128 293 OFFCURVE",
"170 337 OFFCURVE",
"233 337 CURVE SMOOTH",
"295 337 OFFCURVE",
"335 293 OFFCURVE",
"335 225 CURVE SMOOTH",
"335 188 LINE SMOOTH",
"335 121 OFFCURVE",
"295 76 OFFCURVE",
"233 76 CURVE SMOOTH"
);
},
{
closed = 1;
nodes = (
"336 340 OFFCURVE",
"419 395 OFFCURVE",
"419 513 CURVE SMOOTH",
"419 539 LINE SMOOTH",
"419 647 OFFCURVE",
"354 708 OFFCURVE",
"233 708 CURVE SMOOTH",
"112 708 OFFCURVE",
"45 647 OFFCURVE",
"45 539 CURVE SMOOTH",
"45 513 LINE SMOOTH",
"45 395 OFFCURVE",
"125 340 OFFCURVE",
"233 340 CURVE SMOOTH"
);
},
{
closed = 1;
nodes = (
"170 407 OFFCURVE",
"140 447 OFFCURVE",
"140 507 CURVE SMOOTH",
"140 517 LINE SMOOTH",
"140 579 OFFCURVE",
"170 618 OFFCURVE",
"233 618 CURVE SMOOTH",
"295 618 OFFCURVE",
"324 579 OFFCURVE",
"324 517 CURVE SMOOTH",
"324 507 LINE SMOOTH",
"324 447 OFFCURVE",
"295 407 OFFCURVE",
"233 407 CURVE SMOOTH"
);
}
);
width = 464;
}
);
unicode = 0038;
},
{
glyphname = colon;
lastChange = "2016-11-17 13:42:12 +0000";
layers = (
{
layerId = "262880E7-CFE1-4BDA-902E-E24798F3240A";
paths = (
{
closed = 1;
nodes = (
"177 350 OFFCURVE",
"196 368 OFFCURVE",
"196 391 CURVE SMOOTH",
"196 413 OFFCURVE",
"177 431 OFFCURVE",
"155 431 CURVE SMOOTH",
"134 431 OFFCURVE",
"115 413 OFFCURVE",
"115 391 CURVE SMOOTH",
"115 368 OFFCURVE",
"133 350 OFFCURVE",
"155 350 CURVE SMOOTH"
);
},
{
closed = 1;
nodes = (
"177 7 OFFCURVE",
"196 25 OFFCURVE",
"196 48 CURVE SMOOTH",
"196 70 OFFCURVE",
"177 88 OFFCURVE",
"155 88 CURVE SMOOTH",
"134 88 OFFCURVE",
"115 70 OFFCURVE",
"115 48 CURVE SMOOTH",
"115 25 OFFCURVE",
"133 7 OFFCURVE",
"155 7 CURVE SMOOTH"
);
}
);
width = 311;
},
{
layerId = "4E2227F3-52E4-4048-A8EE-327B486EF0A4";
paths = (
{
closed = 1;
nodes = (
"223 321 OFFCURVE",
"266 368 OFFCURVE",
"266 426 CURVE SMOOTH",
"266 484 OFFCURVE",
"214 530 OFFCURVE",
"161 530 CURVE SMOOTH",
"108 530 OFFCURVE",
"56 484 OFFCURVE",
"56 426 CURVE SMOOTH",
"56 368 OFFCURVE",
"99 321 OFFCURVE",
"161 321 CURVE SMOOTH"
);
},
{
closed = 1;
nodes = (
"223 0 OFFCURVE",
"266 47 OFFCURVE",
"266 105 CURVE SMOOTH",
"266 163 OFFCURVE",
"214 209 OFFCURVE",
"161 209 CURVE SMOOTH",
"108 209 OFFCURVE",
"56 163 OFFCURVE",
"56 105 CURVE SMOOTH",
"56 47 OFFCURVE",
"99 0 OFFCURVE",
"161 0 CURVE SMOOTH"
);
}
);
width = 318;
}
);
leftKerningGroup = colon;
unicode = 003A;
},
{
glyphname = comma;
lastChange = "2016-11-17 13:42:12 +0000";
layers = (
{
layerId = "262880E7-CFE1-4BDA-902E-E24798F3240A";
paths = (
{
closed = 1;
nodes = (
"130 -66 LINE",
"184 153 LINE",
"162 153 LINE",
"108 -66 LINE"
);
}
);
width = 293;
},
{
layerId = "4E2227F3-52E4-4048-A8EE-327B486EF0A4";
paths = (
{
closed = 1;
nodes = (
"146 -111 LINE",
"209 160 LINE",
"41 160 LINE",
"24 -111 LINE"
);
}
);
width = 233;
}
);
leftKerningGroup = comma;
rightKerningGroup = comma;
unicode = 002C;
},
{
glyphname = exclam;
lastChange = "2016-11-17 13:42:12 +0000";
layers = (
{
layerId = "262880E7-CFE1-4BDA-902E-E24798F3240A";
paths = (
{
closed = 1;
nodes = (
"160 220 LINE",
"160 700 LINE",
"138 700 LINE",
"138 220 LINE"
);
},
{
closed = 1;
nodes = (
"168 5 OFFCURVE",
"187 23 OFFCURVE",
"187 46 CURVE SMOOTH",
"187 68 OFFCURVE",
"168 86 OFFCURVE",
"146 86 CURVE SMOOTH",
"125 86 OFFCURVE",
"106 68 OFFCURVE",
"106 46 CURVE SMOOTH",
"106 23 OFFCURVE",
"124 5 OFFCURVE",
"146 5 CURVE SMOOTH"
);
}
);
width = 297;
},
{
layerId = "4E2227F3-52E4-4048-A8EE-327B486EF0A4";
paths = (
{
closed = 1;
nodes = (
"225 248 LINE",
"245 700 LINE",
"57 700 LINE",
"77 248 LINE"
);
},
{
closed = 1;
nodes = (
"212 0 OFFCURVE",
"255 47 OFFCURVE",
"255 105 CURVE SMOOTH",
"255 163 OFFCURVE",
"203 209 OFFCURVE",
"150 209 CURVE SMOOTH",
"97 209 OFFCURVE",
"45 163 OFFCURVE",
"45 105 CURVE SMOOTH",
"45 47 OFFCURVE",
"88 0 OFFCURVE",
"150 0 CURVE SMOOTH"
);
}
);
width = 302;
}
);
unicode = 0021;
},
{
glyphname = period;
lastChange = "2016-11-17 13:42:12 +0000";
layers = (
{
layerId = "262880E7-CFE1-4BDA-902E-E24798F3240A";
paths = (
{
closed = 1;
nodes = (
"177 7 OFFCURVE",
"196 25 OFFCURVE",
"196 48 CURVE SMOOTH",
"196 70 OFFCURVE",
"177 88 OFFCURVE",
"155 88 CURVE SMOOTH",
"134 88 OFFCURVE",
"115 70 OFFCURVE",
"115 48 CURVE SMOOTH",
"115 25 OFFCURVE",
"133 7 OFFCURVE",
"155 7 CURVE SMOOTH"
);
}
);
width = 313;
},
{
layerId = "4E2227F3-52E4-4048-A8EE-327B486EF0A4";
paths = (
{
closed = 1;
nodes = (
"211 -8 OFFCURVE",
"254 39 OFFCURVE",
"254 97 CURVE SMOOTH",
"254 155 OFFCURVE",
"202 201 OFFCURVE",
"149 201 CURVE SMOOTH",
"96 201 OFFCURVE",
"44 155 OFFCURVE",
"44 97 CURVE SMOOTH",
"44 39 OFFCURVE",
"87 -8 OFFCURVE",
"149 -8 CURVE SMOOTH"
);
}
);
width = 308;
}
);
leftKerningGroup = comma;
rightKerningGroup = comma;
unicode = 002E;
},
{
glyphname = question;
lastChange = "2016-11-17 17:45:14 +0000";
layers = (
{
layerId = "262880E7-CFE1-4BDA-902E-E24798F3240A";
paths = (
{
closed = 1;
nodes = (
"197 185 LINE",
"197 271 LINE",
"197 372 OFFCURVE",
"356 378 OFFCURVE",
"356 546 CURVE SMOOTH",
"356 645 OFFCURVE",
"294 709 OFFCURVE",
"202 709 CURVE SMOOTH",
"109 709 OFFCURVE",
"46 645 OFFCURVE",
"46 550 CURVE SMOOTH",
"46 500 LINE",
"68 500 LINE",
"68 550 LINE SMOOTH",
"68 633 OFFCURVE",
"122 688 OFFCURVE",
"202 688 CURVE SMOOTH",
"281 688 OFFCURVE",
"334 633 OFFCURVE",
"334 549 CURVE SMOOTH",
"334 395 OFFCURVE",
"173 394 OFFCURVE",
"173 271 CURVE",
"173 185 LINE"
);
},
{
closed = 1;
nodes = (
"209 5 OFFCURVE",
"228 23 OFFCURVE",
"228 46 CURVE SMOOTH",
"228 68 OFFCURVE",
"209 86 OFFCURVE",
"187 86 CURVE SMOOTH",
"166 86 OFFCURVE",
"147 68 OFFCURVE",
"147 46 CURVE SMOOTH",
"147 23 OFFCURVE",
"165 5 OFFCURVE",
"187 5 CURVE SMOOTH"
);
}
);
width = 405;
},
{
layerId = "4E2227F3-52E4-4048-A8EE-327B486EF0A4";
paths = (
{
closed = 1;
nodes = (
"391 236 LINE",
"391 252 LINE",
"391 339 OFFCURVE",
"551 338 OFFCURVE",
"551 503 CURVE SMOOTH",
"551 627 OFFCURVE",
"461 710 OFFCURVE",
"320 710 CURVE SMOOTH",
"174 710 OFFCURVE",
"74 620 OFFCURVE",
"74 488 CURVE SMOOTH",
"74 478 LINE",
"262 469 LINE",
"262 488 LINE SMOOTH",
"262 517 OFFCURVE",
"281 539 OFFCURVE",
"315 539 CURVE SMOOTH",
"344 539 OFFCURVE",
"361 522 OFFCURVE",
"361 494 CURVE SMOOTH",
"361 418 OFFCURVE",
"205 410 OFFCURVE",
"205 264 CURVE",
"205 236 LINE"
);
},
{
closed = 1;
nodes = (
"359 -5 OFFCURVE",
"404 38 OFFCURVE",
"404 91 CURVE SMOOTH",
"404 144 OFFCURVE",
"358 187 OFFCURVE",
"306 187 CURVE SMOOTH",
"254 187 OFFCURVE",
"209 144 OFFCURVE",
"209 90 CURVE SMOOTH",
"209 38 OFFCURVE",
"252 -5 OFFCURVE",
"305 -5 CURVE SMOOTH"
);
}
);
width = 601;
}
);
unicode = 003F;
},
{
glyphname = quotedbl;
lastChange = "2016-11-17 21:06:34 +0000";
layers = (
{
layerId = "262880E7-CFE1-4BDA-902E-E24798F3240A";
paths = (
{
closed = 1;
nodes = (
"163 500 LINE",
"166 692 LINE",
"140 692 LINE",
"143 500 LINE"
);
},
{
closed = 1;
nodes = (
"75 500 LINE",
"78 692 LINE",
"52 692 LINE",
"55 500 LINE"
);
}
);
width = 218;
},
{
layerId = "4E2227F3-52E4-4048-A8EE-327B486EF0A4";
paths = (
{
closed = 1;
nodes = (
"382 460 LINE",
"402 700 LINE",
"224 700 LINE",
"244 460 LINE"
);
},
{
closed = 1;
nodes = (
"156 460 LINE",
"176 700 LINE",
"-2 700 LINE",
"18 460 LINE"
);
}
);
width = 400;
}
);
leftKerningGroup = quotedbl;
leftMetricsKey = "=quotesingle";
rightKerningGroup = quotedbl;
rightMetricsKey = "=quotesingle";
unicode = 0022;
},
{
glyphname = quotesingle;
lastChange = "2016-11-17 21:06:34 +0000";
layers = (
{
layerId = "262880E7-CFE1-4BDA-902E-E24798F3240A";
paths = (
{
closed = 1;
nodes = (
"75 507 LINE",
"78 697 LINE",
"52 697 LINE",
"55 507 LINE"
);
}
);
width = 130;
},
{
layerId = "4E2227F3-52E4-4048-A8EE-327B486EF0A4";
paths = (
{
closed = 1;
nodes = (
"166 460 LINE",
"186 700 LINE",
"-2 700 LINE",
"18 460 LINE"
);
}
);
width = 184;
}
);
leftKerningGroup = quotedbl;
leftMetricsKey = "=n-20";
rightKerningGroup = quotedbl;
rightMetricsKey = "=|n-20";
unicode = 0027;
},
{
glyphname = semicolon;
lastChange = "2016-11-17 13:42:12 +0000";
layers = (
{
layerId = "262880E7-CFE1-4BDA-902E-E24798F3240A";
paths = (
{
closed = 1;
nodes = (
"133 -60 LINE",
"168 147 LINE",
"144 147 LINE",
"112 -60 LINE"
);
},
{
closed = 1;
nodes = (
"174 370 OFFCURVE",
"193 388 OFFCURVE",
"193 411 CURVE",
"193 433 OFFCURVE",
"174 451 OFFCURVE",
"152 451 CURVE SMOOTH",
"131 451 OFFCURVE",
"112 433 OFFCURVE",
"112 411 CURVE SMOOTH",
"112 388 OFFCURVE",
"130 370 OFFCURVE",
"152 370 CURVE SMOOTH"
);
}
);
width = 298;
},
{
layerId = "4E2227F3-52E4-4048-A8EE-327B486EF0A4";
paths = (
{
closed = 1;
nodes = (
"154 -111 LINE",
"217 160 LINE",
"49 160 LINE",
"32 -111 LINE"
);
},
{
closed = 1;
nodes = (
"191 291 OFFCURVE",
"234 338 OFFCURVE",
"234 396 CURVE SMOOTH",
"234 454 OFFCURVE",
"182 500 OFFCURVE",
"129 500 CURVE SMOOTH",
"76 500 OFFCURVE",
"24 454 OFFCURVE",
"24 396 CURVE SMOOTH",
"24 338 OFFCURVE",
"67 291 OFFCURVE",
"129 291 CURVE SMOOTH"
);
}
);
width = 258;
}
);
leftKerningGroup = colon;
unicode = 003B;
},
{
glyphname = slash;
lastChange = "2016-11-17 13:42:12 +0000";
layers = (
{
layerId = "262880E7-CFE1-4BDA-902E-E24798F3240A";
paths = (
{
closed = 1;
nodes = (
"22 0 LINE",
"218 700 LINE",
"196 700 LINE",
"0 0 LINE"
);
}
);
width = 218;
},
{
layerId = "4E2227F3-52E4-4048-A8EE-327B486EF0A4";
paths = (
{
closed = 1;
nodes = (
"188 0 LINE",
"442 700 LINE",
"254 700 LINE",
"0 0 LINE"
);
}
);
width = 442;
}
);
unicode = 002F;
},
{
glyphname = emdash;
lastChange = "2016-11-17 13:42:12 +0000";
layers = (
{
layerId = "262880E7-CFE1-4BDA-902E-E24798F3240A";
paths = (
{
closed = 1;
nodes = (
"423 251 LINE",
"423 272 LINE",
"23 272 LINE",
"23 251 LINE"
);
}
);
width = 446;
},
{
layerId = "4E2227F3-52E4-4048-A8EE-327B486EF0A4";
paths = (
{
closed = 1;
nodes = (
"419 165 LINE",
"419 325 LINE",
"12 325 LINE",
"12 165 LINE"
);
}
);
width = 431;
}
);
leftKerningGroup = hyphen;
rightKerningGroup = hyphen;
unicode = 2014;
},
{
glyphname = hyphen;
lastChange = "2016-11-17 13:42:12 +0000";
layers = (
{
layerId = "262880E7-CFE1-4BDA-902E-E24798F3240A";
paths = (
{
closed = 1;
nodes = (
"276 251 LINE",
"276 272 LINE",
"23 272 LINE",
"23 251 LINE"
);
}
);
width = 299;
},
{
layerId = "4E2227F3-52E4-4048-A8EE-327B486EF0A4";
paths = (
{
closed = 1;
nodes = (
"299 165 LINE",
"299 325 LINE",
"12 325 LINE",
"12 165 LINE"
);
}
);
width = 311;
}
);
leftKerningGroup = hyphen;
rightKerningGroup = hyphen;
unicode = 002D;
},
{
glyphname = quotedblleft;
lastChange = "2016-11-17 21:08:20 +0000";
layers = (
{
layerId = "262880E7-CFE1-4BDA-902E-E24798F3240A";
paths = (
{
closed = 1;
nodes = (
"94 507 LINE",
"26 697 LINE",
"0 697 LINE",
"74 507 LINE"
);
},
{
closed = 1;
nodes = (
"194 507 LINE",
"126 697 LINE",
"100 697 LINE",
"174 507 LINE"
);
}
);
width = 194;
},
{
layerId = "4E2227F3-52E4-4048-A8EE-327B486EF0A4";
paths = (
{
closed = 1;
nodes = (
"253 460 LINE",
"187 700 LINE",
"0 700 LINE",
"111 460 LINE"
);
},
{
closed = 1;
nodes = (
"423 460 LINE",
"404 700 LINE",
"219 700 LINE",
"293 460 LINE"
);
}
);
width = 423;
}
);
leftMetricsKey = "=quoteleft";
rightMetricsKey = "=quoteleft";
unicode = 201C;
},
{
glyphname = quoteleft;
lastChange = "2016-11-17 17:37:23 +0000";
layers = (
{
layerId = "262880E7-CFE1-4BDA-902E-E24798F3240A";
paths = (
{
closed = 1;
nodes = (
"26 697 LINE",
"0 697 LINE",
"74 507 LINE",
"94 507 LINE"
);
}
);
width = 94;
},
{
layerId = "4E2227F3-52E4-4048-A8EE-327B486EF0A4";
paths = (
{
closed = 1;
nodes = (
"187.96 700 LINE",
"-0.04 700 LINE",
"83.402 460 LINE",
"231.402 460 LINE"
);
}
);
width = 231;
}
);
unicode = 2018;
},
{
glyphname = dollar;
lastChange = "2016-11-17 13:13:52 +0000";
layers = (
{
layerId = "262880E7-CFE1-4BDA-902E-E24798F3240A";
paths = (
{
closed = 1;
nodes = (
"349 -5 OFFCURVE",
"412 50 OFFCURVE",
"412 149 CURVE SMOOTH",
"412 255 OFFCURVE",
"339 307 OFFCURVE",
"257 361 CURVE SMOOTH",
"176 414 OFFCURVE",
"112 457 OFFCURVE",
"112 550 CURVE SMOOTH",
"112 634 OFFCURVE",
"164 684 OFFCURVE",
"248 684 CURVE SMOOTH",
"332 684 OFFCURVE",
"384 635 OFFCURVE",
"384 548 CURVE SMOOTH",
"384 500 LINE",
"406 500 LINE",
"406 550 LINE SMOOTH",
"406 650 OFFCURVE",
"346 705 OFFCURVE",
"248 705 CURVE SMOOTH",
"150 705 OFFCURVE",
"90 649 OFFCURVE",
"90 553 CURVE SMOOTH",
"90 446 OFFCURVE",
"165 394 OFFCURVE",
"243 342 CURVE SMOOTH",
"320 291 OFFCURVE",
"390 248 OFFCURVE",
"390 152 CURVE SMOOTH",
"390 67 OFFCURVE",
"335 15 OFFCURVE",
"250 15 CURVE SMOOTH",
"165 15 OFFCURVE",
"118 68 OFFCURVE",
"118 154 CURVE SMOOTH",
"118 200 LINE",
"96 200 LINE",
"96 150 LINE SMOOTH",
"96 50 OFFCURVE",
"152 -5 OFFCURVE",
"251 -5 CURVE SMOOTH"
);
},
{
closed = 1;
nodes = (
"265 -88 LINE",
"265 2 LINE",
"243 2 LINE",
"243 -88 LINE"
);
},
{
closed = 1;
nodes = (
"258 702 LINE",
"258 792 LINE",
"236 792 LINE",
"236 702 LINE"
);
}
);
width = 502;
},
{
layerId = "4E2227F3-52E4-4048-A8EE-327B486EF0A4";
paths = (
{
closed = 1;
nodes = (
"367 -8 OFFCURVE",
"456 70 OFFCURVE",
"456 187 CURVE SMOOTH",
"456 288 OFFCURVE",
"389 338 OFFCURVE",
"284 412 CURVE SMOOTH",
"217 459 OFFCURVE",
"197 475 OFFCURVE",
"197 508 CURVE SMOOTH",
"197 534 OFFCURVE",
"210 548 OFFCURVE",
"231 548 CURVE SMOOTH",
"252 548 OFFCURVE",
"266 534 OFFCURVE",
"266 514 CURVE SMOOTH",
"266 490 LINE",
"451 490 LINE",
"451 509 LINE SMOOTH",
"451 628 OFFCURVE",
"364 708 OFFCURVE",
"232 708 CURVE SMOOTH",
"99 708 OFFCURVE",
"12 628 OFFCURVE",
"12 510 CURVE SMOOTH",
"12 387 OFFCURVE",
"107 322 OFFCURVE",
"182 272 CURVE SMOOTH",
"252 225 OFFCURVE",
"271 211 OFFCURVE",
"271 186 CURVE SMOOTH",
"271 164 OFFCURVE",
"257 152 OFFCURVE",
"237 152 CURVE SMOOTH",
"216 152 OFFCURVE",
"202 166 OFFCURVE",
"202 188 CURVE SMOOTH",
"202 211 LINE",
"17 211 LINE",
"17 180 LINE SMOOTH",
"17 70 OFFCURVE",
"102 -8 OFFCURVE",
"235 -8 CURVE SMOOTH"
);
},
{
closed = 1;
nodes = (
"292 -68 LINE",
"289 53 LINE",
"176 53 LINE",
"173 -68 LINE"
);
},
{
closed = 1;
nodes = (
"289 657 LINE",
"292 778 LINE",
"174 778 LINE",
"177 657 LINE"
);
}
);
width = 468;
}
);
unicode = 0024;
},
{
glyphname = at;
lastChange = "2016-11-17 13:44:41 +0000";
layers = (
{
components = (
{
name = a.alt;
transform = "{0.6667, 0, 0, 0.6667, 284, 112}";
}
);
layerId = "262880E7-CFE1-4BDA-902E-E24798F3240A";
paths = (
{
closed = 1;
nodes = (
"640 -71 OFFCURVE",
"802 92 OFFCURVE",
"802 290 CURVE SMOOTH",
"802 488 OFFCURVE",
"640 651 OFFCURVE",
"441 651 CURVE SMOOTH",
"242 651 OFFCURVE",
"80 488 OFFCURVE",
"80 290 CURVE SMOOTH",
"80 92 OFFCURVE",
"242 -71 OFFCURVE",
"441 -71 CURVE SMOOTH"
);
},
{
closed = 1;
nodes = (
"254 -50 OFFCURVE",
"102 102 OFFCURVE",
"102 290 CURVE SMOOTH",
"102 478 OFFCURVE",
"254 630 OFFCURVE",
"441 630 CURVE SMOOTH",
"628 630 OFFCURVE",
"780 478 OFFCURVE",
"780 290 CURVE SMOOTH",
"780 102 OFFCURVE",
"628 -50 OFFCURVE",
"441 -50 CURVE SMOOTH"
);
}
);
width = 882;
},
{
components = (
{
name = a.alt;
transform = "{0.5714, 0, 0, 0.5714, 284, 143}";
}
);
layerId = "4E2227F3-52E4-4048-A8EE-327B486EF0A4";
paths = (
{
closed = 1;
nodes = (
"623 -62 OFFCURVE",
"782 96 OFFCURVE",
"782 292 CURVE SMOOTH",
"782 486 OFFCURVE",
"623 644 OFFCURVE",
"429 644 CURVE SMOOTH",
"235 644 OFFCURVE",
"77 486 OFFCURVE",
"77 292 CURVE SMOOTH",
"77 96 OFFCURVE",
"235 -62 OFFCURVE",
"429 -62 CURVE SMOOTH"
);
},
{
closed = 1;
nodes = (
"272 28 OFFCURVE",
"167 134 OFFCURVE",
"167 292 CURVE SMOOTH",
"167 449 OFFCURVE",
"272 554 OFFCURVE",
"429 554 CURVE SMOOTH",
"587 554 OFFCURVE",
"692 449 OFFCURVE",
"692 292 CURVE SMOOTH",
"692 134 OFFCURVE",
"587 28 OFFCURVE",
"429 28 CURVE SMOOTH"
);
}
);
width = 862;
}
);
unicode = 0040;
},
{
glyphname = copyright;
lastChange = "2016-11-22 01:02:29 +0000";
layers = (
{
components = (
{
name = C;
transform = "{0.5, 0, 0, 0.5, 322, 111}";
}
);
layerId = "262880E7-CFE1-4BDA-902E-E24798F3240A";
paths = (
{
closed = 1;
nodes = (
"640 -71 OFFCURVE",
"802 92 OFFCURVE",
"802 290 CURVE SMOOTH",
"802 488 OFFCURVE",
"640 651 OFFCURVE",
"441 651 CURVE SMOOTH",
"242 651 OFFCURVE",
"80 488 OFFCURVE",
"80 290 CURVE SMOOTH",
"80 92 OFFCURVE",
"242 -71 OFFCURVE",
"441 -71 CURVE SMOOTH"
);
},
{
closed = 1;
nodes = (
"254 -50 OFFCURVE",
"102 102 OFFCURVE",
"102 290 CURVE SMOOTH",
"102 478 OFFCURVE",
"254 630 OFFCURVE",
"441 630 CURVE SMOOTH",
"628 630 OFFCURVE",
"780 478 OFFCURVE",
"780 290 CURVE SMOOTH",
"780 102 OFFCURVE",
"628 -50 OFFCURVE",
"441 -50 CURVE SMOOTH"
);
}
);
width = 882;
},
{
components = (
{
name = C;
transform = "{0.5, 0, 0, 0.5, 312, 111}";
}
);
layerId = "4E2227F3-52E4-4048-A8EE-327B486EF0A4";
paths = (
{
closed = 1;
nodes = (
"623 -62 OFFCURVE",
"782 96 OFFCURVE",
"782 292 CURVE SMOOTH",
"782 486 OFFCURVE",
"623 644 OFFCURVE",
"429 644 CURVE SMOOTH",
"235 644 OFFCURVE",
"77 486 OFFCURVE",
"77 292 CURVE SMOOTH",
"77 96 OFFCURVE",
"235 -62 OFFCURVE",
"429 -62 CURVE SMOOTH"
);
},
{
closed = 1;
nodes = (
"272 28 OFFCURVE",
"167 134 OFFCURVE",
"167 292 CURVE SMOOTH",
"167 449 OFFCURVE",
"272 554 OFFCURVE",
"429 554 CURVE SMOOTH",
"587 554 OFFCURVE",
"692 449 OFFCURVE",
"692 292 CURVE SMOOTH",
"692 134 OFFCURVE",
"587 28 OFFCURVE",
"429 28 CURVE SMOOTH"
);
}
);
width = 882;
}
);
unicode = 00A9;
},
{
glyphname = registered;
lastChange = "2016-11-22 01:02:29 +0000";
layers = (
{
components = (
{
name = R;
transform = "{0.5, 0, 0, 0.5, 339, 111}";
}
);
layerId = "262880E7-CFE1-4BDA-902E-E24798F3240A";
paths = (
{
closed = 1;
nodes = (
"640 -72 OFFCURVE",
"802 91 OFFCURVE",
"802 289 CURVE SMOOTH",
"802 487 OFFCURVE",
"640 650 OFFCURVE",
"441 650 CURVE SMOOTH",
"242 650 OFFCURVE",
"80 487 OFFCURVE",
"80 289 CURVE SMOOTH",
"80 91 OFFCURVE",
"242 -72 OFFCURVE",
"441 -72 CURVE SMOOTH"
);
},
{
closed = 1;
nodes = (
"254 -51 OFFCURVE",
"102 101 OFFCURVE",
"102 289 CURVE SMOOTH",
"102 477 OFFCURVE",
"254 629 OFFCURVE",
"441 629 CURVE SMOOTH",
"628 629 OFFCURVE",
"780 477 OFFCURVE",
"780 289 CURVE SMOOTH",
"780 101 OFFCURVE",
"628 -51 OFFCURVE",
"441 -51 CURVE SMOOTH"
);
}
);
width = 882;
},
{
components = (
{
name = R;
transform = "{0.5, 0, 0, 0.5, 317, 111}";
}
);
layerId = "4E2227F3-52E4-4048-A8EE-327B486EF0A4";
paths = (
{
closed = 1;
nodes = (
"623 -62 OFFCURVE",
"782 96 OFFCURVE",
"782 292 CURVE SMOOTH",
"782 486 OFFCURVE",
"623 644 OFFCURVE",
"429 644 CURVE SMOOTH",
"235 644 OFFCURVE",
"77 486 OFFCURVE",
"77 292 CURVE SMOOTH",
"77 96 OFFCURVE",
"235 -62 OFFCURVE",
"429 -62 CURVE SMOOTH"
);
},
{
closed = 1;
nodes = (
"272 28 OFFCURVE",
"167 134 OFFCURVE",
"167 292 CURVE SMOOTH",
"167 449 OFFCURVE",
"272 554 OFFCURVE",
"429 554 CURVE SMOOTH",
"587 554 OFFCURVE",
"692 449 OFFCURVE",
"692 292 CURVE SMOOTH",
"692 134 OFFCURVE",
"587 28 OFFCURVE",
"429 28 CURVE SMOOTH"
);
}
);
width = 882;
}
);
unicode = 00AE;
},
